<?xml version="1.0" encoding="utf-8"?>
<!-- Generator: Adobe Illustrator 24.3.0, SVG Export Plug-In . SVG Version: 6.00 Build 0)  -->
<svg version="1.1" id="Layer_1" xmlns="http://www.w3.org/2000/svg" xmlns:xlink="http://www.w3.org/1999/xlink" x="0px" y="0px"
	 viewBox="0 0 203.7 407.6" style="enable-background:new 0 0 203.7 407.6;" xml:space="preserve">
<style type="text/css">
	.st0{fill:#FAAF40;}
	.st1{opacity:0.69;fill:#FFFFFF;enable-background:new    ;}
	.st2{opacity:0.2;fill:#231F20;enable-background:new    ;}
	.st3{fill:#231F20;}
	.st4{fill:#FAAF40;stroke:#231F20;stroke-width:1.42;stroke-miterlimit:10;}
	.st5{fill:#FFFFFF;}
	.st6{fill:#3F3B3C;}
	.st7{fill:#703429;}
	.st8{fill:#3C5D78;}
	.st9{opacity:0.32;}
	.st10{fill:#FFFFFF;stroke:#231F20;stroke-width:1.42;stroke-miterlimit:10;}
	.st11{fill:#02647D;}
</style>
<g id="scene">
	<g id="tail">
		<path class="st0" d="M153.3,264.8c-0.1,0-0.1,0-0.2,0c-0.2,0-0.3-0.1-0.4-0.3c-0.1,0-0.2,0.1-0.3,0.1c-0.1,0.1-0.2,0.1-0.3,0.1
			c-0.3,0-0.5-0.1-0.6-0.4l-6.1-10.7c-0.2-0.4,0-0.8,0.3-1c0,0,0,0,0,0c3-1.3,5.9-5.1,8.2-8.2c0.7-0.9,1.3-1.7,1.9-2.5
			c2.8-3.3,5.2-7,7.3-10.8c3.8-7.7,6.1-16,6.7-24.5c1-9.9-1.7-19.3-4.2-28.4c-2-7.3-4.1-14.8-4.4-22.7c-0.5-11.1,4.8-23.1,12.8-29.1
			c0.1-0.1,0.3-0.1,0.4-0.1c0.4,0,0.7,0.3,0.7,0.7c0,0.1,0,0.3-0.1,0.4c-3.2,4.6-1.9,14.9-0.2,20.8c0.7-1.7,1.6-3.3,2.9-4.6
			c0.1-0.1,0.3-0.2,0.5-0.2c0.1,0,0.2,0,0.3,0.1c0.3,0.1,0.4,0.4,0.4,0.7c-0.8,5.8,1.7,14.5,4.9,21.4c0.2-1.1,0.5-2.3,0.9-3.4
			c0.3-1,0.6-2,0.8-3c0.1-0.3,0.4-0.6,0.7-0.6l0,0c0.3,0,0.6,0.3,0.7,0.6c0.3,2,0.7,4.1,1.1,6.1l0.1,0.6c0.6,2.9,1.5,5.8,2.8,8.5
			l0.1-0.5c0.2-1.1,0.5-2.1,0.9-3.1c0.1-0.3,0.4-0.4,0.6-0.4l0,0c0.3,0,0.6,0.2,0.6,0.5c1.1,3.7,2.5,7.4,3.9,10.9
			c2,4.7,3.6,9.6,4.8,14.6c2,9.8,0.9,19.9-3.1,29c-4.7,10.7-13.5,20.6-24.2,27.3c-3.3,2-6.8,4-10.2,5.8c-3.6,2-7.4,4.1-10.8,6.2
			C153.6,264.8,153.4,264.8,153.3,264.8z"/>
		<path class="st1" d="M170.6,206.8c-0.5,4.9-1.4,9.7-2.7,14.5c4.4-8.7,6-18.5,4.7-28.1c-1.8-14.5-7.3-28.5-6.9-43.2
			c0.1-5.9,1.2-11.7,3.4-17.2c-4.8,6.7-7.2,14.7-7,22.9C162.7,173.3,172.3,188.8,170.6,206.8z"/>
		<path class="st2" d="M201.4,196.6c-2-8.8-6.1-16.8-8.7-25.4c-0.7,1.7-0.8,3.5-1.4,5.2c-1.9-2.9-2.9-6.9-3.7-10.2
			c-0.4-1.9-0.1-5.3-1.3-6.7c-0.6,2.8-2,5.7-2,8.8c-3.2-6.3-7-16.8-6-24c-1.7,1.7-2.6,4-3.5,6.2c-1.6-4.4-3.1-12.5-2.1-18.5
			c-0.4,1-0.8,2-1.1,3.1c-2.4,8.3-0.7,16.2,2.1,24.2c4.9,14.2,14.5,25.8,16.3,41.1c1.6,13.6-2,27.5-11.5,37.6
			c-8.3,8.9-19.2,14.6-29.6,20.7l3.2,5.5c0.3-0.2,0.7-0.2,1-0.3c0,0.1,0.1,0.3,0.2,0.4c6.6-4.1,14.2-7.9,21-12.1
			c10.2-6.3,19.1-15.9,23.9-26.9C202.1,216.5,203.4,205.8,201.4,196.6z"/>
		<path class="st3" d="M174.5,127c-3.7,5.4-1.7,17.5,0.3,23.3c0.9-2.2,1.8-4.5,3.5-6.2c-1,7.2,2.8,17.8,6,24c0-3.1,1.4-5.9,2-8.8
			c0.3,2.3,0.8,4.5,1.3,6.7c0.8,3.4,1.9,7.3,3.7,10.2c0.6-1.7,0.7-3.5,1.4-5.2c2.5,8.6,6.7,16.6,8.7,25.4c2.1,9.2,0.7,19.9-3.1,28.5
			c-4.8,11-13.8,20.6-23.9,26.9c-6.8,4.2-14.4,7.9-21,12.1c-0.1-0.1-0.1-0.3-0.2-0.4c-0.3,0-0.7,0.1-1,0.3l-6.2-10.6
			c4.1-1.8,7.7-7.5,10.4-10.9c2.8-3.4,5.3-7.1,7.4-11c3.9-7.6,6-16.3,6.8-24.8c1.7-17.9-7.9-33.5-8.6-51.2
			C161.5,145.3,166.2,133.2,174.5,127 M178.3,144.1L178.3,144.1 M174.5,125.6c-0.3,0-0.6,0.1-0.9,0.3c-8.2,6.2-13.6,18.4-13.1,29.7
			c0.3,8,2.4,15.6,4.5,22.9c2.6,9.4,5.1,18.3,4.1,28.1c-0.7,8.4-2.9,16.7-6.6,24.2c-2,3.8-4.4,7.4-7.2,10.7
			c-0.6,0.7-1.3,1.6-1.9,2.5c-2.3,3-5.1,6.7-7.9,7.9c-0.4,0.2-0.7,0.5-0.8,0.9c-0.1,0.4-0.1,0.8,0.1,1.1l6.1,10.7
			c0.3,0.6,1,0.8,1.7,0.6c0.1,0.1,0.3,0.1,0.4,0.2c0.1,0,0.2,0,0.3,0c0.3,0,0.5-0.1,0.8-0.2c3.4-2.1,7.1-4.2,10.7-6.2
			c3.4-1.9,6.9-3.8,10.2-5.9c10.8-6.7,19.7-16.8,24.5-27.6c4.1-9.2,5.2-20.2,3.2-29.4c-1.3-5-2.9-9.9-4.8-14.7
			c-1.4-3.5-2.8-7.2-3.8-10.9c-0.2-0.6-0.7-1-1.3-1h-0.1c-0.6,0-1.1,0.4-1.3,0.9c-0.2,0.5-0.4,1.1-0.5,1.6c-0.8-2.1-1.4-4.3-1.9-6.4
			l-0.1-0.6c-0.4-1.6-0.7-2.9-1.1-6c-0.1-0.7-0.7-1.2-1.4-1.2l0,0c-0.7,0-1.3,0.5-1.4,1.1c-0.2,0.9-0.5,1.9-0.8,2.9
			c-0.1,0.4-0.3,0.9-0.4,1.4c-2.7-6.4-4.6-13.9-4-19c0-0.1,0-0.2,0-0.3c0-0.8-0.6-1.4-1.4-1.4h-0.1c-0.3,0-0.6,0.1-0.8,0.3l0,0
			l-0.1,0.1c-0.9,0.9-1.6,2-2.2,3.1c-1.5-6.3-2-14.6,0.6-18.4c0.4-0.6,0.3-1.5-0.4-2C175,125.6,174.7,125.6,174.5,125.6L174.5,125.6
			z M174.5,128.4L174.5,128.4z"/>
	</g>
	<g id="body">
		<path class="st0" d="M32.1,358.8c-0.9,0-1.7,0-2.5-0.1c-4.6-0.2-9.9-0.5-15.1-1l-0.6,0c-3.7-0.4-7.9-0.7-10.9-3.3
			c-6.4-5.5,2.6-22.9,2.7-23c3.5-6.6,8.4-7.5,12.8-7.5c2.3,0,4.6,0.2,6.8,0.5l0.9,0.1c0.8,0.1,1.7,0.2,2.5,0.2c0.6,0,1.1,0,1.7-0.1
			c-0.6-1.1-1.3-2.2-2-3.2s-1.2-1.9-1.8-2.8l-0.4-0.7c-2.7-4.4-5.1-9.1-7.3-13.8c-3.1-7.3-5.6-14.9-7.4-22.6
			c-1.4-5.9-3.1-12.5-1.9-19.1c1.4-8.3,6.1-14.8,12.6-17.5c3.5-1.4,7.2-2.2,11-2.2l0,0c11.1,0,23.2,6.1,31.6,15.8l0.7,0.8
			c0.3,0.3,0.5,0.6,0.8,0.9c1.4,1.4,2.6,3,3.3,4.9c0.8,2.4,0,4.8-1,7.1c-6.7,15.8-9.7,32.8-8.9,49.9c0.1,3,0.2,6,0.3,9
			c0.1,3.7,0.2,7.5,0.4,11.2c0.3,6.3-1.3,9.5-5.6,11c-1.5,1-3.1,1.8-4.8,2.5C44.3,357.8,38.2,358.9,32.1,358.8L32.1,358.8z"/>
		<path class="st3" d="M33.1,243.1c11.8,0,23.6,6.9,31.1,15.6l0.7,0.8c1.5,1.7,3.3,3.4,4,5.5s-0.1,4.5-1,6.6
			c-6.7,15.5-9.6,33.4-8.9,50.2c0.3,6.7,0.4,13.5,0.8,20.1c0.3,5.6-0.9,8.8-5.2,10.4c-1.5,1-3.1,1.8-4.8,2.5
			c-5.6,2.2-11.6,3.3-17.7,3.3c-0.9,0-1.7,0-2.5-0.1c-5-0.3-10.1-0.5-15.1-1c-3.7-0.4-8-0.6-11-3.2c-4.9-4.3,0.3-17.4,2.8-22.2
			c3-5.8,7.2-7.1,12.1-7.1c2.5,0.1,5.1,0.3,7.6,0.6c0.9,0.1,1.7,0.2,2.6,0.2c0.9,0,1.8-0.1,2.7-0.4c-1.2-2.4-2.9-4.6-4.3-6.9
			c-2.8-4.7-5.4-9.5-7.7-14.4c-3.1-7.3-5.6-14.8-7.4-22.6c-1.5-6.2-3-12.5-1.9-18.8c1.2-7.2,5.2-14.1,12.2-17
			C25.8,243.8,29.4,243,33.1,243.1 M33.1,241.6c-3.9,0-7.7,0.8-11.3,2.3c-6.7,2.8-11.6,9.5-13,18c-1.1,6.8,0.5,13.5,1.9,19.4
			c1.8,7.8,4.3,15.4,7.5,22.8c2.2,4.8,4.6,9.4,7.3,13.9l0.4,0.7c0.6,1,1.2,2,1.8,2.9c0.5,0.8,1,1.5,1.5,2.2h-0.5
			c-0.9,0-1.7-0.1-2.5-0.2l-0.9-0.1c-2.3-0.3-4.6-0.5-6.9-0.5c-4.3,0-9.7,0.9-13.4,7.9c-0.1,0.2-9.3,18-2.5,23.9
			c3.2,2.8,7.7,3.2,11.3,3.5h0.5c5.2,0.5,10.5,0.8,15.1,1c0.8,0,1.7,0.1,2.6,0.1c6.2,0.1,12.4-1.1,18.2-3.4c1.7-0.7,3.3-1.5,4.8-2.5
			c5.7-2.1,6.2-7.1,6-11.7c-0.2-3.7-0.3-7.5-0.4-11.1c-0.1-2.9-0.2-6-0.3-9c-0.8-17,2.2-33.9,8.8-49.6c1-2.3,1.9-5,1-7.6
			c-0.8-1.9-2-3.7-3.5-5.1c-0.3-0.3-0.5-0.6-0.8-0.9l-0.1-0.1l-0.6-0.7C56.8,247.7,44.4,241.6,33.1,241.6L33.1,241.6z"/>
		<path class="st1" d="M19.5,303.5c0.7,1.7,1.5,3.3,2.3,4.9c-1.1-6.6-1.6-13.4-2.4-20.1c-1.2-10.5-3.1-23.2,3.6-32.4
			c5.4-7.5,15.5-9.6,24.2-9.2l1.5,0.1c-8.3-3.9-17.7-5.2-26.3-1.6c-6.9,2.9-11,9.8-12.2,17c-1.1,6.3,0.4,12.6,1.9,18.8
			C13.9,288.7,16.4,296.3,19.5,303.5z"/>
		<path class="st2" d="M57.6,284.5c-1.9,5.3-2.4,11.1-2.8,16.6c-0.9,12.1-0.6,25.4-5.9,36.6c-5.8,12.1-19.2,14.9-31.4,11.3
			c-5.6-1.6-10.6-4.6-14.6-8.9c-1.6,5.2-2.3,11,0.6,13.6s7.3,2.9,11,3.2c5,0.5,10.1,0.8,15.1,1c6.4,0.4,14.3-0.7,20.2-3.2
			c1.7-0.7,3.3-1.5,4.8-2.5c4.3-1.5,5.5-4.8,5.2-10.4c-0.3-6.7-0.5-13.4-0.8-20.1c-0.7-16.8,2.2-34.7,9-50.2c1-1.8,1.3-3.8,1.1-5.8
			C64.5,271.6,60.1,277.4,57.6,284.5z"/>
		<path class="st3" d="M33,330c-0.1-0.1-0.2-0.3-0.4-0.3l-0.2,0c-0.6-0.1-1.3,0-1.9,0.1c-1.9,0.2-3.8,0.9-5.5,1.9
			c-2.2,1.3-3.9,3.4-4.8,5.9l0,0c-0.9,3.2-1.2,6.5-1,9.8c0.1,2.2,0.3,4.5,0.5,6.8c0.1,1.2,0.4,2.4,0.9,3.5c0.6,0.1,1.3,0.2,1.9,0.3
			c-0.6-3.3-0.9-6.6-1-9.9c-0.1-1.6-0.1-3.2,0.1-4.8c0.1-1,0.1-2.1,0.2-3.1c0.2-2.7,1.4-5.1,3.3-6.9c1.9-1.5,4.2-2.4,6.6-2.7l0,0
			l1-0.2C33.1,330.4,33.1,330.1,33,330z"/>
		<path class="st3" d="M21.8,329.3c-0.1-0.1-0.2-0.3-0.4-0.3l-0.2-0.1c-0.6-0.1-1.3,0-1.9,0.2c-0.6,0.1-1.3,0.2-1.9,0.4
			c-1.3,0.4-2.5,0.9-3.6,1.6c-2.3,1.5-4,3.7-4.8,6.3l0,0c-0.9,3.4-1.2,7-1,10.5c0.1,2.4,0.3,4.9,0.5,7.2c0,0.3,0.1,0.6,0.1,1h0.1
			l0.4,0.1c0.3,0.1,0.5,0.1,0.8,0.1s0.6,0.1,1,0.2c-0.4-2.7-0.6-5.3-0.6-8c-0.1-1.7-0.1-3.5,0.1-5.2c0.1-1.1,0.1-2.2,0.2-3.3
			c0.2-2.8,1.3-5.5,3.3-7.4c1.9-1.6,4.2-2.6,6.6-2.9l0,0l1-0.2C21.9,329.7,21.8,329.5,21.8,329.3z"/>
		<path class="st0" d="M141.4,358.8c-6.2,0.1-12.3-1.1-18-3.3c-1.7-0.7-3.3-1.5-4.8-2.5c-4.3-1.6-5.9-4.8-5.6-11
			c0.2-3.7,0.3-7.5,0.4-11.2c0.1-3,0.2-6,0.3-9c0.8-17.3-2.4-35-8.9-49.9c-1-2.3-1.8-4.7-1-7.1c0.8-1.8,1.9-3.5,3.4-4.9l0.8-0.9
			l0.7-0.8c8.4-9.8,20.5-15.8,31.6-15.8c3.8,0,7.5,0.7,11,2.2c6.5,2.7,11.2,9.2,12.6,17.5c1.1,6.6-0.5,13.3-1.9,19.1
			c-1.8,7.8-4.3,15.3-7.4,22.6c-2.2,4.7-4.6,9.3-7.3,13.8l-0.4,0.7c-0.6,1-1.2,1.9-1.8,2.8s-1.4,2.1-2,3.2c0.6,0.1,1.1,0.1,1.7,0.1
			c0.8,0,1.7-0.1,2.5-0.2l0.9-0.1c2.3-0.3,4.5-0.5,6.8-0.5c4.4,0,9.3,0.9,12.8,7.5c0.1,0.2,9.1,17.5,2.7,23c-3,2.6-7.2,3-10.9,3.3
			l-0.5,0c-5.2,0.5-10.4,0.8-15.1,1C143.1,358.8,142.3,358.8,141.4,358.8z"/>
		<path class="st3" d="M140.4,243.1c3.7,0,7.3,0.7,10.8,2.1c6.9,2.9,10.9,9.8,12.1,17c1.1,6.3-0.4,12.6-1.9,18.8
			c-1.8,7.7-4.3,15.2-7.4,22.5c-2.3,5-4.8,9.8-7.6,14.5c-1.4,2.3-3.1,4.5-4.3,6.9c0.9,0.3,1.8,0.4,2.7,0.4c0.9,0,1.7-0.1,2.6-0.2
			c2.5-0.3,5.1-0.5,7.6-0.6c5,0,9.1,1.4,12.1,7.1c2.5,4.8,7.8,17.9,2.8,22.2c-3,2.6-7.4,2.9-11,3.2c-5,0.5-10.1,0.8-15.1,1
			c-0.8,0-1.6,0.1-2.5,0.1c-6,0.1-12.1-1-17.7-3.3c-1.7-0.7-3.3-1.5-4.8-2.5c-4.3-1.5-5.5-4.8-5.2-10.4c0.3-6.7,0.4-13.4,0.7-20.1
			c0.8-16.8-2.2-34.8-8.9-50.2c-0.9-2-1.7-4.4-1-6.6s2.5-3.9,4-5.5l0.7-0.8C116.7,250,128.6,243.1,140.4,243.1 M140.4,241.7
			L140.4,241.7c-11.3,0-23.7,6.2-32.2,16.1l-0.6,0.7l-0.1,0.1c-0.3,0.3-0.5,0.6-0.8,0.9c-1.5,1.5-2.7,3.2-3.5,5.1
			c-0.9,2.6,0,5.3,1,7.6c6.6,15.7,9.6,32.6,8.8,49.6c-0.1,3-0.2,6-0.3,9c-0.1,3.6-0.2,7.4-0.4,11.1c-0.2,4.6,0.3,9.6,6,11.7
			c1.5,1,3.2,1.8,4.8,2.5c5.8,2.3,12,3.4,18.2,3.4c0.9,0,1.7,0,2.6-0.1c4.7-0.2,9.9-0.5,15.1-1h0.5c3.6-0.3,8.1-0.8,11.3-3.5
			c6.8-5.9-2.4-23.7-2.5-23.9c-3.7-7-9.1-7.9-13.4-7.9c-2.3,0-4.6,0.2-6.9,0.5l-0.9,0.1c-0.7,0.1-1.6,0.2-2.5,0.2h-0.5
			c0.5-0.7,1-1.5,1.5-2.2c0.6-0.9,1.3-1.9,1.8-2.9l0.5-0.8c2.7-4.5,5.2-9.1,7.3-13.9c3.1-7.4,5.6-15,7.5-22.8
			c1.4-5.9,3.1-12.6,1.9-19.4c-1.4-8.5-6.3-15.2-13-18C148.2,242.5,144.3,241.7,140.4,241.7L140.4,241.7z"/>
		<path class="st1" d="M154,303.5c-0.7,1.7-1.5,3.3-2.4,4.9c1.1-6.6,1.6-13.4,2.4-20.1c1.2-10.5,3.1-23.2-3.6-32.4
			c-5.4-7.5-15.5-9.6-24.2-9.2l-1.4,0.1c8.3-3.9,17.7-5.2,26.3-1.6c6.9,2.9,10.9,9.8,12.1,17c1.1,6.3-0.4,12.6-1.9,18.8
			C159.6,288.7,157.1,296.3,154,303.5z"/>
		<path class="st2" d="M115.9,284.5c1.9,5.3,2.4,11.1,2.8,16.6c0.9,12.1,0.6,25.4,5.9,36.6c5.8,12.1,19.2,14.9,31.4,11.3
			c5.6-1.6,10.6-4.6,14.6-8.9c1.6,5.2,2.3,11-0.6,13.6s-7.4,2.9-11,3.2c-5,0.5-10.1,0.8-15.1,1c-6.4,0.4-14.3-0.7-20.2-3.2
			c-1.7-0.7-3.3-1.5-4.8-2.5c-4.3-1.5-5.5-4.8-5.2-10.4c0.3-6.7,0.4-13.4,0.7-20.1c0.8-16.8-2.2-34.8-8.9-50.2
			c-0.9-1.8-1.3-3.8-1.1-5.8C109,271.6,113.4,277.4,115.9,284.5z"/>
		<path class="st3" d="M140.5,330c0.1-0.1,0.2-0.3,0.4-0.3l0.2,0c0.6-0.1,1.3,0,1.9,0.1c0.6,0.1,1.3,0.2,1.9,0.4
			c1.3,0.3,2.5,0.9,3.6,1.5c2.2,1.3,3.9,3.4,4.8,5.9l0,0c0.9,3.2,1.2,6.5,1,9.8c-0.1,2.2-0.3,4.5-0.5,6.8c-0.1,1.2-0.4,2.4-0.9,3.5
			c-0.7,0.1-1.3,0.2-1.9,0.3c0.6-3.3,0.9-6.6,1-9.9c0.1-1.6,0.1-3.2-0.1-4.8c-0.1-1-0.1-2.1-0.2-3.1c-0.2-2.7-1.4-5.1-3.3-6.9
			c-1.9-1.5-4.2-2.4-6.6-2.7l0,0l-1-0.2C140.4,330.4,140.5,330.1,140.5,330z"/>
		<path class="st3" d="M151.8,329.3c0.1-0.2,0.2-0.3,0.4-0.3l0.2-0.1c0.6-0.1,1.3,0,1.9,0.2c0.6,0.1,1.3,0.2,1.9,0.4
			c1.3,0.4,2.5,0.9,3.6,1.6c2.3,1.5,4,3.7,4.8,6.3l0,0c0.9,3.4,1.2,7,1,10.5c-0.1,2.4-0.3,4.9-0.5,7.2c0,0.3-0.1,0.6-0.1,1h-0.1
			l-0.4,0.1c-0.3,0.1-0.5,0.1-0.8,0.1s-0.7,0.1-1,0.2c0.4-2.7,0.6-5.3,0.6-8c0.1-1.7,0.1-3.5-0.1-5.2c-0.1-1.1-0.1-2.2-0.2-3.3
			c-0.1-2.8-1.3-5.5-3.3-7.4c-1.9-1.6-4.2-2.6-6.6-2.9l0,0c-0.3-0.1-0.6-0.1-1-0.2S151.7,329.5,151.8,329.3z"/>
		<path class="st4" d="M149.5,229.2c1.6-9.7-1.4-22.4-3.2-32.1c-1-5.3-2.5-10.5-4.7-15.5c-0.4-0.7-0.8-1.4-1.2-2
			c-7.4-11.5-18.2-22.3-30.9-28.5c-4-1.9-8.2-3.4-12.6-4.4l-1.2,0.4c-9.6-2.7-19.7-2.5-29.2,0.5c-11.9,4.1-22.6,11.2-31,20.6
			c-4.9,5.4-12,15.8-15.1,25.9c-0.1,0.2-0.2,0.5-0.4,0.7c-1.2,2.7-2.2,5.5-2.9,8.4c-1.7,10.4-1,20.9,2.2,28.4c1.5-2.2,2.1-4.8,3.4-7
			c0.1,5.1-3.2,16,0.5,19.8c1.7-1.6,2.9-3.6,3.5-5.9c1.2,5,1.4,11.2,3,16.6c1.7-1.9,1.9-4.9,3.4-6.7c3,13.6,10.4,26.2,11.2,40.4
			c0.7,13.6-2.7,31.4,4.5,43.7c7.3,12.7,21,23,36.7,23.1c17.6,0.1,25.2-10.3,30.1-25.6c5.1-15.9,16.8-56.2,12.3-83.8
			c2.6,2.6,3.9,6.3,5.6,9.5c1.4-5.6,2.3-11.3,2.8-17.1c2.9,2,5.6,4.2,8,6.8c1.1-7,2-14.1-1.9-20.5
			C144.2,227,146.7,228.5,149.5,229.2z"/>
		<path class="st5" d="M67.8,144.8c-0.4,6.5-12.1,14.6-16.6,19.5c-5.9,6.4-13,13.7-15.6,22.1c3-1.1,9.8-4.2,12.4-2.2
			c-5.6,6.5-11.9,13-11.9,22.4c3.2-2.1,6.3-5.5,10.1-6.6c-0.4,3.3-2.7,7.6-3.3,11.3c-1,6.3,0,12.8,1.1,19c0.8-3.1,2.8-9.9,6.1-10.9
			c-2.7,9.6,3.1,17.8,8.2,25.4c7.6,11,15.7,21.5,24.5,31.6c2.2-1.4,3.6-4.8,5.1-7c4.2-6.2,8.8-12.2,12.8-18.5c6.8-10.7,9-25,7-37.5
			c2.6,2.9,4.7,6.1,7.2,9c4.9-7.6,3.3-13.1,1.7-21.2c2.7,1.4,5.4,2.6,8.2,3.7c2.4-9.4-2.1-17.3-7.7-24.2c2.7,2,6.5,4.7,9.8,5.4
			c1.3-11-8.5-22-15.6-29.1c-3.9-3.9-7.9-8.4-12.8-11c-2.1-1.2-6-1.3-7.7-2.8c-3.3-3-2.2-4.9-2.3-10.8"/>
		<path class="st2" d="M111.2,156.9c-3.9-3.9-7.9-8.4-12.8-11c-2.1-1.2-6-1.3-7.7-2.8c-3.3-3-2.2-4.9-2.3-10.8l-20.6,12.5
			c-0.3,4.9-6.9,10.6-12.1,15.2c3.8,1.3,7.7,2.1,11.7,2.6c5.4,0.6,10.8,0.9,16.2,0.7c5.1-0.1,10.4-1,15.4,0.3
			c11.7,3,11.7,15.5,8.9,25c-2.3,7.9-5.8,15.1-5.7,23.5c0.1,8.6,1,16.2-1.1,24.7c-3.6,14.1-11.2,26.7-19,38.9l0.6,0.7
			c2.2-1.4,3.6-4.8,5.1-7c4.2-6.2,8.8-12.2,12.8-18.5c6.8-10.7,9-25,7-37.5c2.6,2.9,4.7,6.1,7.2,9c4.9-7.6,3.3-13.1,1.7-21.2
			c2.7,1.4,5.4,2.6,8.2,3.7c2.4-9.4-2.1-17.3-7.7-24.2c2.7,2,6.5,4.7,9.8,5.4C128.2,175.1,118.4,164,111.2,156.9z"/>
		<path class="st0" d="M26.1,233.7c-0.4,5-0.2,10,0.5,15c2.7,19,7.2,37.6,13.6,55.7c5.9,16.6,5,36.4,1.6,53.6
			c-0.7,3.7-0.8,9.3-4.2,11c-3,1.5-9.9,1.3-13.5,1.3c-14.2,0.3-21,14.5-18,26.8s27,9.4,36.8,8.4c6.5-0.6,16.7-1.6,22.4-5
			c5.9-3.6,5.3-11.6,5-17.6c-1.2-23.5,4.6-44.4,10.3-66.8c3.6-14-7.2-25.8-10.3-39.2"/>
		<path class="st6" d="M70.2,276.8l0.2,1c0.2,0.6,0.4,1.6,0.8,2.8c1.2,3.5,2.5,7,4.1,10.3c1,2.2,2.1,4.7,3.1,7.4
			c1.1,3,1.9,6,2.3,9.2c0.1,0.9,0.1,1.7,0.1,2.6c0,0.9,0,1.8-0.2,2.6c-0.2,1.9-0.6,3.7-1.2,5.5c-1,3.8-2,7.7-3.1,11.9
			c-2.4,9.1-4.4,18.4-5.8,27.7c-0.8,5.2-1.2,10.5-1.4,15.8c-0.1,2.7-0.1,5.5,0,8.3c0.2,2.8,0.2,5.6,0.1,8.3c0,2.7-0.9,5.3-2.5,7.5
			c-1.6,2-4.4,3.1-7.1,4c-5.6,1.7-11.7,2.2-17.8,2.8c-6.2,0.8-12.5,1-18.7,0.8c-3.1-0.1-6.2-0.7-9.2-1.7c-2.9-1-5.5-2.9-6.5-5.6
			c-0.1-0.3-0.2-0.7-0.3-1L7,395.7l-0.2-1.2l-0.1-1.2c0-0.4-0.1-0.8-0.1-1.2v-1.2c0-0.8,0-1.6,0.1-2.3c0.3-3.1,1.3-6,2.8-8.7
			c1.5-2.6,3.6-4.8,6.2-6.3c2.6-1.5,5.5-2.2,8.4-2.3c3.1-0.1,6.2,0,9.3-0.4c1.7-0.1,3.3-0.6,4.8-1.3c0.8-0.5,1.5-1.1,2-1.9
			c0.5-0.7,0.8-1.5,1.1-2.3c0.5-1.5,0.8-3,1-4.5c0.2-1.5,0.4-2.8,0.7-4.3c0.5-2.9,1-5.8,1.3-8.6c1.4-11.4,1.3-22.5-0.5-32.6
			c-0.2-1.3-0.5-2.5-0.8-3.7s-0.6-2.4-1-3.6c-0.7-2.4-1.5-4.7-2.3-6.9c-1.6-4.4-2.9-8.7-4.2-12.9c-3.9-13.1-6.8-26.4-8.9-39.8
			c-0.6-3.6-0.8-7.3-0.8-11c0-2.5,0.1-3.9,0.1-3.9s-0.1,1.3-0.2,3.9c-0.1,3.7,0,7.4,0.5,11.1c1.8,13.5,4.5,26.9,8.1,40.1
			c1.2,4.2,2.5,8.5,4,13c0.8,2.2,1.5,4.5,2.2,6.8c0.3,1.2,0.7,2.3,0.9,3.6s0.5,2.4,0.7,3.7c1.7,9.9,1.6,20.8,0.2,32
			c-0.4,2.8-0.8,5.6-1.4,8.5s-0.8,6-1.7,8.5c-0.3,1.2-1.1,2.3-2.1,3c-1.3,0.6-2.6,0.9-4,1c-2.9,0.3-6,0.2-9.1,0.3
			c-3.3,0-6.6,0.9-9.5,2.6c-2.9,1.7-5.4,4.2-7.1,7.1c-1.7,3-2.8,6.2-3.1,9.6c-0.1,0.8-0.2,1.7-0.2,2.5v1.3c0,0.4,0.1,0.9,0.1,1.3
			l0.1,1.3l0.2,1.3l0.3,1.3c0.1,0.4,0.2,0.9,0.4,1.3c0.7,1.7,1.8,3.2,3.3,4.4c1.4,1.1,2.9,1.9,4.6,2.5c3.2,1.1,6.5,1.7,9.8,1.8
			c6.4,0.3,12.8,0,19.1-0.8c6.2-0.6,12.4-1.2,18.2-3c1.5-0.4,2.9-1,4.3-1.7c1.5-0.7,2.7-1.7,3.8-3c1.8-2.5,2.9-5.5,2.9-8.7
			c0.1-2.9,0-5.7-0.2-8.5c-0.1-2.8-0.2-5.5-0.1-8.2c0.1-5.2,0.5-10.4,1.2-15.6c1.3-9.3,3.1-18.5,5.3-27.6c1-4.2,2-8.2,2.9-12
			c0.5-1.8,0.9-3.7,1.1-5.6c0.1-0.9,0.1-1.8,0.1-2.8c0-0.9-0.1-1.8-0.2-2.6c-0.4-3.2-1.3-6.3-2.5-9.2c-1.1-2.8-2.2-5.2-3.2-7.4
			c-1.6-3.3-3.1-6.7-4.3-10.2c-0.4-1.2-0.7-2.1-0.8-2.8L70.2,276.8z"/>
		<path class="st2" d="M70.3,277.1c-1.8,6.9-0.9,14.3-0.5,21.3c1,17.6-2,34.8-5.3,52c-0.4,5.5-0.9,10.9-1.8,16.4
			c-2.5,14.7-10.1,29.6-26.9,31.9c-11.5,1.6-23.3-2.7-30-11.4c-0.5,3.2-0.4,6.6,0.3,9.8c2.9,12.3,27,9.4,36.8,8.4
			c6.5-0.6,16.7-1.6,22.4-5c5.9-3.6,5.3-11.6,5-17.6c-1.2-23.5,4.6-44.4,10.3-66.8C84.1,302.2,73.6,290.5,70.3,277.1z"/>
		<path class="st3" d="M38.6,374.1c-0.1,0-0.1,0-0.2-0.1c-0.7-0.1-1.5,0-2.2,0.2c-0.8,0.1-1.5,0.2-2.3,0.4c-1.5,0.4-2.9,1-4.2,1.8
			c-2.6,1.5-4.6,3.9-5.6,6.7v0c-1,3.6-1.4,7.4-1.2,11.1c0.1,2.5,0.3,5.1,0.6,7.7c0.1,1.1,0.4,3.3,1.3,4.4c0.4,0,0.7,0,1.1,0.1H26
			l0.8-0.1c-0.7-3.7-1.1-7.5-1.2-11.3c-0.1-1.8-0.1-3.7,0.1-5.5c0.1-1.2,0.2-2.4,0.3-3.5c0.2-3.1,1.7-5.9,4-7.9c2.3-1.7,5-2.7,7.9-3
			l0,0l1.2-0.2c0.2,0,0.1-0.3,0.1-0.5C38.9,374.3,38.8,374.2,38.6,374.1z"/>
		<path class="st3" d="M25.7,373.7c-0.1-0.2-0.3-0.3-0.5-0.4l-0.2-0.1c-0.8-0.1-1.5,0-2.2,0.2c-0.8,0.1-1.5,0.2-2.3,0.4
			c-1.5,0.4-2.9,1-4.2,1.7c-2.6,1.5-4.7,3.9-5.6,6.7l0,0c-1,3.6-1.4,7.4-1.2,11.1c0.1,2.6,0.3,5.1,0.6,7.7c0.1,0.5,0.1,1.3,0.3,2.1
			c0.3,0.2,0.6,0.4,0.8,0.7c0.5,0.1,1,0.3,1.5,0.4c0.2,0,0.4,0.1,0.6,0.2c-0.6-3.4-1-6.9-1.1-10.3c-0.1-1.8-0.1-3.7,0.1-5.5
			c0.1-1.2,0.2-2.4,0.3-3.5c0.2-3.1,1.7-5.9,4-7.9c2.3-1.9,5-2.6,7.9-3l0,0l1.2-0.2C25.9,374.1,25.8,373.8,25.7,373.7z"/>
		<path class="st0" d="M137.8,233.7c0.4,5,0.2,10-0.4,15c-2.7,19-7.2,37.6-13.6,55.7c-5.9,16.5-5,36.4-1.7,53.5
			c0.7,3.7,0.8,9.3,4.2,11c3,1.5,9.9,1.3,13.4,1.3c14.2,0.3,21,14.5,18,26.8s-27,9.4-36.8,8.4c-6.6-0.6-16.7-1.6-22.4-5
			c-5.9-3.6-5.3-11.6-5-17.6c1.2-23.5-4.6-44.4-10.3-66.8c-3.6-14,7.2-25.8,10.3-39.2"/>
		<path class="st6" d="M93.7,276.8l-0.3,1c-0.2,0.6-0.4,1.6-0.9,2.8c-1.3,3.5-2.7,6.9-4.3,10.2c-1,2.2-2.2,4.6-3.2,7.4
			c-1.2,3-2.1,6.1-2.5,9.3c-0.1,0.9-0.2,1.8-0.2,2.6c0,0.9,0,1.8,0.1,2.8c0.2,1.9,0.6,3.8,1.1,5.6c0.9,3.8,1.9,7.8,2.9,12
			c2.3,9.1,4,18.3,5.3,27.6c0.7,5.2,1.1,10.4,1.2,15.6c0,2.7,0,5.4-0.1,8.2c-0.2,2.8-0.3,5.7-0.2,8.5c0,3.1,1.1,6.2,2.9,8.7
			c1,1.3,2.3,2.3,3.8,3c1.4,0.7,2.8,1.3,4.3,1.7c5.9,1.8,12.1,2.4,18.2,3c6.3,0.8,12.7,1.1,19.1,0.8c3.3-0.1,6.6-0.8,9.8-1.8
			c1.7-0.6,3.2-1.4,4.6-2.5c1.4-1.2,2.6-2.7,3.3-4.4c0.2-0.4,0.3-0.9,0.4-1.3l0.2-1.3l0.2-1.3l0.1-1.3c0-0.4,0.1-0.9,0.1-1.3V391
			c0-0.9,0-1.7-0.1-2.5c-0.4-3.4-1.4-6.7-3.1-9.6c-1.7-3-4.1-5.4-7.1-7.1c-2.9-1.6-6.2-2.5-9.5-2.6c-3.1,0-6.2,0-9.1-0.3
			c-1.4-0.1-2.7-0.4-4-1c-1.1-0.7-1.8-1.8-2.1-3c-0.9-2.6-1-5.7-1.7-8.5s-1-5.7-1.4-8.5c-1.4-11.2-1.6-22.1,0.2-32
			c0.2-1.2,0.4-2.5,0.7-3.7s0.6-2.4,0.9-3.6c0.7-2.3,1.4-4.6,2.2-6.8c1.5-4.5,2.8-8.8,4-13c3.7-13.2,6.4-26.6,8.1-40.1
			c0.5-3.7,0.6-7.4,0.5-11.1c-0.1-2.5-0.2-3.9-0.2-3.9s0.1,1.3,0.1,3.9c0.1,3.7-0.2,7.4-0.7,11.1c-2.1,13.5-5,26.8-8.9,39.8
			c-1.2,4.1-2.6,8.4-4.2,12.9c-0.8,2.2-1.6,4.5-2.3,6.9c-0.3,1.2-0.7,2.4-1,3.6s-0.6,2.5-0.8,3.7c-1.9,10.1-1.9,21.2-0.5,32.6
			c0.4,2.9,0.8,5.7,1.3,8.6c0.3,1.5,0.5,2.8,0.7,4.3c0.2,1.5,0.5,3.1,1,4.5c0.3,0.8,0.6,1.6,1.1,2.3c0.5,0.8,1.2,1.4,2,1.9
			c1.5,0.7,3.1,1.2,4.8,1.3c3.1,0.4,6.3,0.3,9.3,0.4c3,0,5.8,0.8,8.4,2.3c2.6,1.5,4.7,3.7,6.2,6.3c1.5,2.7,2.5,5.6,2.8,8.7
			c0.1,0.8,0.1,1.6,0.1,2.3v1.2c0,0.4-0.1,0.8-0.1,1.2l-0.1,1.2l-0.2,1.2l-0.2,1.1c-0.1,0.3-0.2,0.7-0.3,1c-1,2.7-3.6,4.5-6.5,5.6
			c-3,1-6,1.6-9.2,1.7c-6.3,0.3-12.5,0-18.7-0.8c-6.2-0.6-12.2-1.1-17.8-2.8c-2.7-0.9-5.5-1.9-7.1-4c-1.6-2.2-2.5-4.8-2.5-7.5
			c-0.1-2.8-0.1-5.6,0.1-8.3c0.1-2.8,0.1-5.6,0-8.3c-0.2-5.3-0.6-10.5-1.4-15.8c-1.4-9.3-3.4-18.6-5.8-27.7
			c-1.1-4.2-2.1-8.2-3.1-11.9c-0.5-1.8-0.9-3.6-1.2-5.5c-0.2-1.7-0.2-3.5,0-5.2c0.4-3.1,1.1-6.2,2.3-9.2c1-2.8,2.1-5.2,3.1-7.4
			c1.6-3.4,2.9-6.8,4.1-10.3c0.4-1.2,0.6-2.1,0.8-2.8L93.7,276.8z"/>
		<path class="st2" d="M93.6,277.1c1.8,6.9,0.9,14.3,0.5,21.3c-0.9,17.6,2,34.8,5.3,52c0.4,5.5,0.9,10.9,1.8,16.4
			c2.5,14.7,10.1,29.6,26.9,31.9c11.6,1.6,23.3-2.7,30-11.4c0.5,3.2,0.4,6.6-0.4,9.8c-2.9,12.3-27,9.4-36.8,8.4
			c-6.6-0.6-16.7-1.6-22.4-5c-5.9-3.6-5.3-11.6-5-17.6c1.2-23.5-4.6-44.4-10.3-66.8C79.8,302.2,90.4,290.5,93.6,277.1z"/>
		<path class="st3" d="M125.3,374.1c0.1,0,0.1,0,0.2-0.1c0.7-0.1,1.5,0,2.2,0.2c0.8,0.1,1.5,0.2,2.3,0.4c1.5,0.4,2.9,1,4.2,1.8
			c2.6,1.5,4.6,3.9,5.6,6.7v0c1,3.6,1.4,7.4,1.2,11.1c-0.1,2.5-0.3,5.1-0.6,7.7c-0.1,1.1-0.4,3.3-1.3,4.4c-0.4,0-0.7,0-1.1,0.1H138
			l-0.8-0.1c0.7-3.7,1.1-7.5,1.2-11.3c0.1-1.8,0.1-3.7-0.1-5.5c-0.1-1.2-0.2-2.4-0.3-3.5c-0.2-3.1-1.7-5.9-4-7.9
			c-2.3-1.7-5-2.7-7.9-3l0,0l-1.2-0.2c-0.2,0-0.1-0.3-0.1-0.5C125,374.3,125.2,374.2,125.3,374.1z"/>
		<path class="st3" d="M138.2,373.7c0.1-0.2,0.3-0.3,0.4-0.4l0.2-0.1c0.8-0.1,1.5,0,2.2,0.2c0.8,0.1,1.5,0.2,2.3,0.4
			c1.5,0.4,2.9,1,4.2,1.7c2.6,1.5,4.7,3.9,5.6,6.7l0,0c1,3.6,1.4,7.4,1.2,11.1c-0.1,2.6-0.3,5.1-0.6,7.7c-0.1,0.5-0.1,1.3-0.3,2.1
			c-0.3,0.2-0.6,0.4-0.8,0.7c-0.5,0.1-1,0.3-1.5,0.4c-0.2,0-0.4,0.1-0.6,0.2c0.6-3.4,1-6.9,1.1-10.3c0.1-1.8,0.1-3.7-0.1-5.5
			c-0.1-1.2-0.2-2.4-0.3-3.5c-0.2-3.1-1.7-5.9-4-7.9c-2.3-1.7-5-2.7-7.9-3l0,0l-1.2-0.2C138.1,374.1,138.2,373.8,138.2,373.7z"/>
	</g>
	<g id="head">
		<path class="st0" d="M16,48.4c-0.3,0-0.7,0-1,0c-3-0.3-6-1.2-8.6-2.7c-3.1-1.8-4.9-3.8-5.4-6.3s0.2-5.2,0.9-7.6l0.3-1.2
			c0.9-3,1.6-6,2-9.1c0.1-0.6,0.1-1.3,0.2-1.9c0.1-2.2,0.4-4.4,1-6.6c2.2-7,8.5-9.6,13.5-10.7l1-0.2c3.4-0.8,6.8-1.3,10.3-1.5
			c1.3,0,2.6,0.1,3.8,0.3h0.5c2.5,0,4.9,1.3,7,2.6c3,1.9,5.7,4.1,8,6.7c4.6,4.7,8.4,10,11.2,15.9l0.2,0.3c1.3,2.8,2.8,6.1,2.6,9.4
			s-3,5.1-5.3,6.2c-0.8,0.4-1.5,0.8-2.3,1.1c-1.8,1-3.7,1.8-5.7,2.5c-2.8,0.9-5.7,1.4-8.6,1.5h-0.1c-1.6,0.1-3.1-0.3-4.4-1.2
			c-0.7-0.6-1.3-1.3-1.8-2.1c-0.2-0.3-0.5-0.7-0.7-1c-1-1.2-2.3-2.1-3.7-2.8c-2,2.3-4.4,4.3-7.1,5.9C21.3,47.6,18.7,48.4,16,48.4z"
			/>
		<path class="st3" d="M30.1,1.4c1.3,0,2.5,0.1,3.8,0.4c0.2,0,0.4,0,0.6,0c2.3,0,4.8,1.4,6.6,2.5c2.9,1.8,5.5,4.1,7.8,6.6
			c4.5,4.6,8.3,9.9,11.1,15.7c1.3,2.9,2.9,6.1,2.7,9.4c-0.2,2.9-2.5,4.5-4.9,5.6c-2.5,1.4-5.2,2.6-7.9,3.6c-2.7,0.9-5.5,1.4-8.4,1.4
			h-0.1c-1.4,0.1-2.8-0.3-4-1.1c-0.9-0.9-1.7-1.9-2.4-2.9c-1.2-1.4-2.7-2.5-4.4-3.2c-2.1,2.5-4.5,4.5-7.3,6.2
			c-2.2,1.3-4.7,2.1-7.3,2.1c-0.3,0-0.6,0-1,0c-2.9-0.3-5.8-1.1-8.3-2.6c-2.3-1.3-4.5-3.1-5.1-5.9s0.3-5.4,1-7.9
			c1-3.2,1.7-6.4,2.2-9.8c0.3-2.8,0.3-5.6,1.1-8.3c1.9-6,7.1-9,12.9-10.2C22.5,2.1,26.3,1.6,30.1,1.4 M30.1,0L30.1,0
			C26.5,0.1,23,0.6,19.5,1.5l-0.9,0.2c-7.4,1.5-12.2,5.4-14,11.1c-0.6,2.2-0.9,4.5-1,6.7c0,0.6-0.1,1.3-0.2,1.9
			c-0.4,3.1-1.1,6.1-2,9L1.3,31l-0.2,0.6c-0.7,2.4-1.5,5.2-0.9,8s2.5,4.8,5.8,6.7c2.7,1.6,5.8,2.5,8.9,2.8c0.4,0,0.7,0,1.1,0
			c2.8-0.1,5.6-0.8,8-2.3c2.6-1.5,4.9-3.4,6.9-5.6c1.1,0.6,2.2,1.4,3,2.3c0.2,0.3,0.5,0.6,0.7,0.9c0.5,0.8,1.2,1.6,2,2.2
			c1.4,0.9,3.1,1.4,4.8,1.3h0.1c3-0.1,6-0.6,8.8-1.5c2-0.7,3.9-1.5,5.8-2.5c0.7-0.4,1.5-0.8,2.3-1.1c2.5-1.2,5.5-3,5.8-6.8
			c0.3-3.5-1.3-6.8-2.7-9.8L61.3,26c-2.9-5.9-6.7-11.4-11.4-16.1c-2.4-2.7-5.1-5-8.1-6.9c-2.2-1.3-4.7-2.7-7.4-2.7h-0.5
			C32.7,0.1,31.4,0,30.1,0z"/>
		<path class="st1" d="M3.6,31c5.2-8.3,6-18.5,14.9-24.3c6.1-4,13.7-4.9,20.8-3.5c-1.6-1-3.5-1.5-5.4-1.5c-4.8-1-10.3,0.3-15,1.3
			C13.1,4.2,7.8,7.3,5.9,13.2c-0.8,2.7-0.9,5.6-1.1,8.3c-0.4,3.3-1.2,6.6-2.2,9.8c-0.1,0.5-0.3,1-0.4,1.5C2.7,32.3,3.2,31.6,3.6,31z
			"/>
		<path class="st7" d="M32.4,37c0.5-1.5,1.8-3,2.6-4.5s1.5-3.1,2.3-4.6c1.6-3.3,2.9-6.8,4-10.3c0.4-1.5,0.6-3.9,1.6-4.9
			c5.3,3.6,9.3,10.5,12,16.3c1.2,2.4,1.8,5.1,1.7,7.8c-0.4,4.8-9.2,8.4-13.5,8c-2.7-0.3-5.2-1.7-6.8-3.9
			C35.2,39.6,33.2,38.1,32.4,37z"/>
		<path class="st0" d="M151.8,48.4c-2.7-0.1-5.3-0.8-7.6-2.2c-2.7-1.6-5.1-3.6-7.1-5.9c-1.4,0.7-2.6,1.6-3.6,2.8
			c-0.3,0.3-0.5,0.7-0.7,1c-0.5,0.8-1.1,1.5-1.8,2.1c-1.3,0.9-2.9,1.3-4.4,1.2h-0.1c-2.9-0.1-5.8-0.6-8.6-1.5
			c-2-0.7-3.9-1.5-5.7-2.5c-0.8-0.4-1.5-0.8-2.3-1.1c-2.3-1.1-5.1-2.8-5.3-6.2s1.3-6.5,2.6-9.4l0.2-0.3c2.9-5.9,6.7-11.2,11.3-15.9
			c2.3-2.6,5-4.9,8-6.7c2.1-1.3,4.5-2.6,7-2.6h0.5c1.3-0.2,2.6-0.4,3.8-0.4c3.5,0.1,7,0.6,10.4,1.5l1,0.2c4.9,1,11.3,3.7,13.5,10.7
			c0.6,2.1,0.9,4.3,1,6.6c0,0.6,0.1,1.3,0.1,1.9c0.4,3.1,1.1,6.1,2,9.1l0.3,1.2c0.7,2.5,1.4,5,0.9,7.6s-2.3,4.5-5.4,6.3
			c-2.6,1.5-5.6,2.4-8.6,2.7C152.5,48.4,152.1,48.4,151.8,48.4z"/>
		<path class="st3" d="M137.7,1.4c3.8,0.2,7.5,0.7,11.2,1.6c5.8,1.2,11.1,4.2,13,10.2c0.8,2.7,0.9,5.6,1.1,8.3
			c0.4,3.3,1.2,6.6,2.2,9.8c0.7,2.5,1.6,5.3,1,7.9s-2.8,4.5-5.1,5.8c-2.6,1.5-5.4,2.3-8.3,2.6c-0.3,0-0.6,0-0.9,0
			c-2.6-0.1-5.1-0.8-7.3-2.1c-2.8-1.6-5.2-3.7-7.3-6.2c-1.7,0.8-3.2,1.9-4.4,3.2c-0.7,1.1-1.5,2.1-2.4,2.9c-1.2,0.8-2.6,1.1-4,1.1
			h-0.1c-2.9-0.1-5.7-0.6-8.4-1.4c-2.7-1-5.4-2.2-7.9-3.5c-2.5-1.2-4.7-2.7-4.9-5.6c-0.2-3.3,1.3-6.5,2.7-9.4
			c2.9-5.8,6.6-11.1,11.2-15.7c2.3-2.6,4.9-4.8,7.8-6.6c1.9-1.1,4.3-2.5,6.6-2.5c0.2,0,0.4,0,0.6,0C135.2,1.5,136.5,1.4,137.7,1.4
			 M137.7,0c-1.3,0-2.6,0.1-3.9,0.3h-0.5c-2.6,0-5.2,1.4-7.4,2.7c-3,1.9-5.8,4.2-8.1,6.9c-4.6,4.7-8.5,10.2-11.4,16.1l-0.2,0.3
			c-1.4,2.9-2.9,6.2-2.7,9.8c0.3,3.8,3.2,5.6,5.7,6.8c0.8,0.4,1.5,0.7,2.3,1.1c1.9,1,3.8,1.8,5.8,2.5c2.8,0.9,5.8,1.4,8.8,1.5h0.1
			c1.7,0.1,3.4-0.4,4.8-1.3c0.8-0.6,1.5-1.4,2-2.2c0.2-0.3,0.5-0.7,0.7-0.9c0.8-1,1.9-1.8,3-2.3c2,2.2,4.3,4.1,6.9,5.6
			c2.4,1.5,5.2,2.3,8,2.3c0.4,0,0.7,0,1.1,0c3.1-0.3,6.2-1.2,8.9-2.8c3.3-1.9,5.2-4.1,5.8-6.8s-0.2-5.5-0.9-8l-0.2-0.6l-0.2-0.5
			c-0.9-2.9-1.6-5.9-2-9c-0.1-0.6-0.1-1.3-0.2-1.9c-0.1-2.3-0.4-4.5-1-6.7c-1.8-5.8-6.6-9.6-14-11.1l-0.9-0.2
			C144.8,0.6,141.3,0.1,137.7,0L137.7,0z"/>
		<path class="st1" d="M164.2,31c-5.2-8.3-6-18.5-14.9-24.3c-6.1-4-13.7-4.9-20.8-3.5c1.6-1,3.5-1.5,5.4-1.5c4.8-1,10.3,0.3,15,1.3
			c5.8,1.2,11.1,4.2,13,10.2c0.8,2.7,0.9,5.6,1.1,8.3c0.4,3.3,1.2,6.6,2.2,9.8c0.1,0.5,0.3,1,0.4,1.5
			C165.1,32.3,164.6,31.6,164.2,31z"/>
		<path class="st7" d="M135.4,37c-0.5-1.5-1.9-3-2.6-4.5s-1.6-3.1-2.3-4.6c-1.6-3.3-2.9-6.8-4-10.3c-0.4-1.5-0.6-3.9-1.6-4.9
			c-5.3,3.6-9.3,10.5-12,16.3c-1.2,2.4-1.8,5.1-1.7,7.8c0.4,4.8,9.2,8.4,13.5,8c2.7-0.3,5.2-1.7,6.8-3.9
			C132.6,39.6,134.6,38.1,135.4,37z"/>
		<path class="st0" d="M85.8,159.2c-0.8,0-1.7,0-2.5,0s-1.6,0-2.4,0c-2.2,0-4.4-0.1-6.5-0.2c-2.6,0-5.3-0.3-7.8-1
			c-15.2-2.9-26.3-10.7-31.9-22.6l0,0c-0.3,1.3-0.9,2.5-1.5,3.7l-0.5,0.7L32,139c-2.9-3-4.3-7.3-5.4-11.3l-0.1,0.5
			c-0.5,2-1.2,3.9-2.1,5.7l-0.5,1.1l-0.7-1c-3.5-5.3-3.9-10.1-4.2-15.2c-0.1-1-0.1-2.1-0.3-3.2c-0.6,0.9-1.2,1.8-1.8,2.7
			s-1.1,1.6-1.6,2.3l-0.8,1.2l-0.5-1.3c-2.6-7.6,1.2-15.7,4.6-22.7c1.2-2.5,2.4-4.9,3.2-7.1c1.9-5.4,3.3-11,4.4-16.6
			c2-9.4,4-19.1,10.1-27.8C45.6,32.9,56.9,24,81.7,23.8h1.5c29.3,0.2,38.7,10.3,47.2,22.4c6.1,8.7,8.1,18.4,10.1,27.8
			c1.1,5.6,2.5,11.2,4.4,16.7c0.8,2.2,2,4.6,3.2,7.1c3.4,7.1,7.3,15.1,4.6,22.7l-0.5,1.3l-0.8-1.2c-0.5-0.8-1-1.6-1.6-2.3
			s-1.2-1.8-1.8-2.7c-0.1,1.1-0.2,2.2-0.2,3.2c-0.4,5.1-0.7,9.9-4.2,15.2l-0.7,1l-0.6-1.1c-0.9-1.8-1.5-3.8-2.1-5.7
			c-0.1-0.2-0.1-0.3-0.1-0.5c-1.2,3.9-2.6,8.2-5.4,11.3l-0.6,0.6l-0.5-0.7c-0.7-1.1-1.2-2.4-1.6-3.7l0,0
			c-5.6,11.9-16.7,19.8-32,22.7c-2.5,0.7-5.1,1-7.8,1C90.2,159.1,88,159.2,85.8,159.2z"/>
		<path class="st3" d="M82.8,24.5L82.8,24.5c28.6,0.2,38.1,9.6,46.9,22.1c9.5,13.6,9,29.5,14.4,44.3c3.2,8.8,11.3,19.4,7.8,29.4
			c-1.5-2.2-3-4.6-4.5-6.5c-0.9,7.3-0.1,13.1-4.6,19.9c-1.2-2.4-2-5.6-2.9-8.3c-1.3,4.5-2.6,9.7-5.9,13.2c-1-1.5-1.4-3.6-2-5.2
			c-6,14.3-18.4,21.3-32.2,23.9c-2.5,0.7-5.1,1-7.7,1c-2.1,0.2-4.3,0.3-6.4,0.2c-0.8,0-1.6,0-2.5,0c-0.8,0-1.6,0-2.4,0
			c-2.1,0-4.3-0.1-6.4-0.2c-2.6,0-5.2-0.3-7.7-1c-13.8-2.6-26.2-9.6-32.2-23.9c-0.7,1.7-1,3.7-2,5.2c-3.3-3.4-4.6-8.7-5.9-13.2
			c-0.9,2.7-1.7,5.9-2.9,8.3c-4.5-6.8-3.6-12.6-4.6-19.9c-1.5,1.9-3,4.4-4.5,6.5c-3.4-10,4.6-20.6,7.8-29.4
			c5.4-14.8,4.8-30.7,14.3-44.3C45.7,34,56.6,24.7,82,24.5L82.8,24.5 M82.8,23h-1.5l0,0c-24.8,0.4-36.2,9.3-45.5,22.7
			c-6.1,8.8-8.2,18.6-10.2,28.1c-1,5.6-2.5,11.1-4.3,16.5c-0.8,2.2-2,4.6-3.2,7.1c-3.5,7.2-7.4,15.3-4.7,23.3l0.9,2.6l1.6-2.3
			c0.5-0.8,1.1-1.6,1.6-2.4l0.7-1.1l0.1,1.2c0.4,5.2,0.7,10.1,4.4,15.6l1.4,2l1.1-2.2c0.6-1.3,1.2-2.7,1.6-4.1
			c1.1,3.4,2.5,6.8,4.9,9.3l1.2,1.3l1-1.4c0.5-0.7,0.8-1.4,1.1-2.2c5.9,11.2,16.8,18.6,31.6,21.5c2.6,0.7,5.2,1,7.9,1.1
			c2.1,0.2,4.3,0.2,6.5,0.2c0.8,0,1.6,0,2.4,0s1.7,0,2.5,0l0,0c2.2,0,4.4-0.1,6.5-0.2c2.7,0,5.3-0.4,7.9-1.1
			c14.8-2.8,25.7-10.2,31.6-21.5c0.3,0.8,0.6,1.5,1.1,2.2l1,1.4l1.2-1.3c2.4-2.6,3.8-6,4.9-9.3c0.4,1.4,0.9,2.8,1.6,4.1l1.1,2.2
			l1.3-2c3.6-5.5,4-10.4,4.4-15.6l0.1-1.2l0.7,1.1c0.5,0.8,1.1,1.6,1.6,2.4l1.6,2.3l0.9-2.6c2.7-7.9-1.2-16.1-4.7-23.3
			c-1.2-2.5-2.3-4.8-3.1-7.1c-1.8-5.4-3.3-10.9-4.3-16.5c-2-9.5-4.1-19.3-10.2-28.1c-8.6-12.2-18.1-22.3-47.4-22.7L82.8,23L82.8,23z
			"/>
		<path class="st7" d="M36.5,61.2c-4.4,7.4-5,17-0.7,24.6c3,5.4,8.6,9.6,14.9,9.9c6.4,0.3,13.7-4.4,18.1-8.8
			c5-5.1,8.8-12.6,8.8-19.8c0-10-7.2-21.4-18.1-21.4c-6.9,0-13,4.3-17.7,8.9C39.7,56.5,37.9,58.7,36.5,61.2z"/>
		<path class="st2" d="M147.5,98.4c-3.9,16-12.9,30.3-25.7,40.6c-19.9,15.9-47.6,17.5-69.9,6c-5.8-2.9-11.3-6.2-16.5-10
			c6.2,13.1,18.2,19.7,31.4,22.2c2.5,0.7,5.1,1,7.7,1c2.9,0.2,5.9,0.3,8.9,0.2c3,0.1,5.9,0,8.9-0.2c2.6,0,5.2-0.3,7.7-1
			c13.8-2.6,26.3-9.6,32.2-23.9c0.7,1.7,1,3.7,2,5.2c3.3-3.4,4.6-8.7,5.9-13.2c0.9,2.7,1.6,5.9,2.9,8.3c4.5-6.8,3.6-12.6,4.6-19.9
			c1.5,1.9,3,4.4,4.5,6.5C154.5,113,150.9,105.4,147.5,98.4z"/>
		<path class="st1" d="M32.4,61.2C42.5,43.4,60,32.2,80.3,29.6c17.2-2.3,34.6,2.9,47.6,14.4c-8.3-11.2-18.4-19.4-45.1-19.5H82
			C56.7,24.7,45.7,34,36.9,46.6c-5.4,7.7-7.5,16-9.4,24.6C29,67.7,30.6,64.4,32.4,61.2z"/>
		<path class="st5" d="M103.1,99c-6.4-9.7-18.6-13.9-29.6-10c-13.4,4.7-19.6,20-19.7,33.3c0,2.5,0.1,4.9,0.3,7.3
			c1,9,4.5,17,9.1,21.2c12.2,11.1,33.9,11.7,42.7-9.9c4.1-9.9,4.2-21.5,1.5-31.8C106.6,105.6,105.1,102.1,103.1,99z"/>
		<path class="st3" d="M98.8,152l0.8-0.8l0.1-0.1c0.4-0.5,0.9-1,1.4-1.5c-0.9,0.4-1.9,0.7-2.9,0.9c-1.7,0.4-3.5,0.3-5.2-0.1
			c-2-0.5-3.7-1.6-5.2-3c-1.7-1.7-3-3.8-3.5-6.2c-0.6-2.9-0.9-5.7-1-8.6c-0.2-3.3-0.2-6.6-0.2-9.8s0-6.3,0-9.2c0-1.1,0-2.1,0-3.2
			c-0.6-0.1-1.2-0.2-1.7-0.3c0,1.1-0.1,2.3-0.1,3.4c-0.1,2.9-0.2,6.1-0.2,9.3s-0.1,6.6,0.2,10.1c0.1,3.1,0.5,6.2,1.2,9.3
			c0.4,1.5,1,2.9,1.8,4.2c0.7,1.1,1.6,2.2,2.6,3.1c1.7,1.5,3.8,2.6,6,3.1c1.9,0.4,3.9,0.3,5.7-0.3C98.6,152.1,98.7,152.1,98.8,152z"
			/>
		<path class="st3" d="M83.1,122.7c0-3.2-0.1-6.4-0.2-9.3c0-1.1-0.1-2.1-0.1-3.2c-0.6-0.1-1.2-0.2-1.7-0.4c0,1.2,0,2.4,0,3.6
			c0,3,0,6,0,9.2s0,6.5-0.3,9.8c-0.1,2.9-0.4,5.8-1,8.6c-0.6,2.4-1.8,4.5-3.5,6.2c-1.5,1.4-3.2,2.5-5.2,3c-1.7,0.5-3.5,0.5-5.2,0.1
			c-1.5-0.3-3-0.9-4.3-1.6c0.2,0.3,0.5,0.6,0.7,0.9c0.6,0.6,1.2,1.2,1.8,1.7c0.5,0.2,1.1,0.4,1.6,0.6c1.8,0.6,3.8,0.7,5.7,0.3
			c2.3-0.5,4.3-1.5,6.1-3.1c1-0.9,1.9-2,2.6-3.1c0.8-1.3,1.4-2.7,1.8-4.2c0.7-3,1.1-6.1,1.2-9.3C83.1,129.3,83.1,125.9,83.1,122.7z"
			/>
		<circle class="st3" cx="69.5" cy="113.6" r="2.1"/>
		<circle class="st3" cx="70.2" cy="123.5" r="2.1"/>
		<circle class="st3" cx="62.2" cy="117.8" r="1.4"/>
		<circle class="st3" cx="62.7" cy="124.6" r="1.4"/>
		<circle class="st3" cx="94.8" cy="113.3" r="2.1"/>
		<circle class="st3" cx="93.5" cy="123" r="2.1"/>
		<path class="st8" d="M81.7,111.7c-0.3,0-0.5,0-0.8-0.1c-2.7-0.6-5.3-1.4-7.8-2.6c-1.8-0.9-4-2.1-5.2-4.1c-1.2-1.8-1.1-4.1,0.3-5.8
			c1.1-1,2.5-1.6,3.9-1.9c2.9-0.8,6-1.2,9-1.1c1.6,0,3.2,0.1,5,0.2l0.6,0.1c2.6,0.2,5.6,0.5,7.7,1.9c0.4,0.3,0.8,0.7,1.2,1.1
			c0.8,1.1,1.1,2.4,0.8,3.7c-0.7,2.6-3.5,4.7-5.9,5.9c-2.5,1.2-5.2,2.1-7.9,2.7c-0.2,0.1-0.4,0.1-0.7,0.1H81.7z"/>
		<path d="M81.1,96.5c1.7,0,3.3,0.1,4.9,0.2c2.7,0.2,6,0.4,8,1.9c0.4,0.3,0.7,0.6,1,1c2.5,3.4-1.1,7.1-5,8.9
			c-2.5,1.2-5.1,2.1-7.8,2.6c-0.2,0.1-0.4,0.1-0.6,0.1h-0.1c-0.2,0-0.4,0-0.6-0.1c-2.7-0.6-5.3-1.4-7.8-2.6c-2.1-1-4-2.2-5-3.9
			c-1.1-1.6-1-3.7,0.2-5.2c1.1-0.9,2.3-1.5,3.7-1.8c2.9-0.8,5.8-1.1,8.8-1.1 M80.9,95.5c-3,0-6,0.3-8.9,1.1c-1.5,0.3-2.9,1-4.1,2
			c-1.5,1.7-1.7,4.1-0.3,6.4s3.6,3.4,5.4,4.3c2.5,1.2,5.2,2.1,7.9,2.7c0.3,0.1,0.5,0.1,0.8,0.1h0.1c0.3,0,0.6,0,0.8-0.1
			c2.7-0.6,5.4-1.5,7.9-2.7c2.5-1.2,5.5-3.4,6.2-6.2c0.4-1.4,0-3-0.9-4.1c-0.4-0.5-0.8-0.9-1.3-1.2c-2.2-1.5-5.2-1.8-7.9-2l-0.6-0.1
			c-1.8-0.2-3.4-0.2-5-0.2L80.9,95.5z"/>
		<g class="st9">
			<path class="st3" d="M95.8,101.2c-1,4.3-9,7.5-15.2,6.7c-3.4,0-6.8-0.9-9.7-2.7c-1.4-0.8-2.6-2.1-3.3-3.6c0,1,0.2,2,0.8,2.9
				c1,1.7,2.9,2.9,5,3.9c2.5,1.2,5.1,2.1,7.8,2.6c0.4,0.1,0.8,0.1,1.2,0c2.7-0.6,5.3-1.4,7.8-2.6C93.3,106.9,96.4,104.1,95.8,101.2z
				"/>
		</g>
		<path d="M91.9,104.5c-0.4,0.4-1,0.8-1.6,1c-0.6,0.3-1.3,0.5-2,0.6c-0.7,0.1-1.5,0.1-2.1-0.2c-0.8-0.4-1.2-1.3-1-2.2
			c0.3-0.8,1-1.4,1.8-1.6c0.7-0.2,1.4-0.3,2.1-0.4h0.2h0.3c0.7-0.1,1.4,0,2.1,0.3c0.5,0.3,0.8,0.7,0.8,1.3
			C92.5,103.7,92.3,104.2,91.9,104.5z"/>
		<path d="M85.8,102.9c-1.3,1.2-0.6,3.4,0.8,4.3c2.2,1.4,5,0.7,6.8-0.7c1.1-0.7,1.9-1.7,2.5-2.9c-1.7,1-2.9,2.5-5,3
			c-1,0.3-2,0.3-2.9,0c-0.9-0.4-1.7-1.6-1.2-2.4"/>
		<path d="M71.3,104.5c0.4,0.4,1,0.8,1.6,1c0.6,0.3,1.3,0.5,2,0.6c0.7,0.1,1.5,0.1,2.1-0.2c0.8-0.4,1.2-1.3,1-2.2
			c-0.3-0.8-1-1.4-1.8-1.6c-0.7-0.2-1.4-0.3-2.1-0.4h-0.2h-0.3c-0.7-0.1-1.4,0-2.1,0.3c-0.5,0.3-0.8,0.7-0.8,1.3
			C70.7,103.7,70.9,104.2,71.3,104.5z"/>
		<path d="M77.4,102.9c1.3,1.2,0.6,3.4-0.8,4.3c-2.2,1.4-5,0.7-6.8-0.7c-1.1-0.7-1.9-1.7-2.5-2.9c1.7,1,2.9,2.5,5,3
			c1,0.3,2,0.3,2.9,0c0.9-0.4,1.7-1.6,1.2-2.4"/>
		<ellipse class="st5" cx="82.3" cy="98.8" rx="6.1" ry="0.8"/>
		<path class="st10" d="M49.2,68.3c2.2-1.1,4.6-1.9,7-2.2c2.4-0.6,4.8-0.7,7.2-0.3c3.8,0.9,6,4.4,6.2,8.1c0,1.6-0.1,3.1-0.4,4.7
			c-0.6,2.9-2.4,5.8-5.5,6.8c-3.6,1.2-8.4,0.2-11.7-1.2c-2.5-1.2-4.5-3.2-5.6-5.8c-1.1-2.7-0.8-5.8,0.8-8.2
			C47.8,69.5,48.5,68.8,49.2,68.3z"/>
		<circle class="st11" cx="57.8" cy="74.1" r="8.1"/>
		<circle class="st3" cx="57.8" cy="73.6" r="5.4"/>
		<circle class="st5" cx="56.9" cy="69.7" r="2.1"/>
		<path class="st10" d="M117.5,68.3c-2.2-1.1-4.6-1.9-7-2.2c-2.4-0.6-4.8-0.7-7.2-0.3c-3.8,0.9-6,4.4-6.2,8.1c0,1.6,0.1,3.1,0.4,4.7
			c0.6,2.9,2.5,5.8,5.5,6.8c3.6,1.2,8.4,0.2,11.7-1.2c2.5-1.2,4.5-3.2,5.6-5.8c1.1-2.7,0.8-5.8-0.8-8.2
			C118.9,69.4,118.2,68.8,117.5,68.3z"/>
		<circle class="st11" cx="108.9" cy="74.1" r="8.1"/>
		<circle class="st3" cx="108.9" cy="73.6" r="5.4"/>
		<circle class="st5" cx="109.8" cy="69.7" r="2.1"/>
		<path class="st3" d="M66.1,50.6c-3.8-2.9-8.3-2.6-12.6-1c-2,0.8-3.9,1.9-5.6,3.2c-1,1-2,2-2.8,3.1c-0.1,0.3-0.2,0.6-0.3,0.9
			c0,0.2,0,0.3,0.1,0.5c0,0,0,0.1,0,0.1c0.1,0.1,0.3,0.4,0,0.1c0.1,0.1,0.2,0.2,0.2,0.2l0,0c0,0,0.1,0.1,0.1,0.1l0.2,0.1l0.2,0.1
			l0.3,0.1c3.2-0.2,7.4-4.2,10.2-4.5c2.5-0.2,5.1,0.4,7.3,1.7c1.1,0.6,2.3,1.8,3.6,1.5C70.8,56.2,67.7,51.8,66.1,50.6z"/>
		<path class="st3" d="M98.5,49.7c3.8-2.9,8.3-2.6,12.6-1c2,0.8,3.9,1.8,5.6,3.2c1,1,2,2,2.8,3.1c0.1,0.3,0.2,0.6,0.3,0.9
			c0,0.2,0,0.3-0.1,0.5v0.1c-0.1,0-0.3,0.4,0,0.1c-0.1,0.1-0.2,0.2-0.2,0.2l0,0l-0.1,0.1l-0.2,0.1l-0.2,0.1c-0.1,0-0.2,0.1-0.3,0.1
			c-3.2-0.2-7.4-4.2-10.2-4.5c-2.6-0.2-5.1,0.4-7.3,1.8c-1,0.6-2.3,1.8-3.6,1.5C93.8,55.4,96.9,50.9,98.5,49.7z"/>
	</g>
</g>
</svg>
