<?xml version="1.0" encoding="UTF-8"?>
<svg xmlns="http://www.w3.org/2000/svg" xmlns:xlink="http://www.w3.org/1999/xlink" id="container" width="300px" height="300px" viewBox="0 0 300 300">
  <g id="scene">
    <g transform="matrix(1,0,0,1,180,290)" id="dog_9opl9">
      <g transform="matrix(1,0,0,1,-75,-200)" stroke="#0000ff" fill="none" style="">
        <rect x="0" y="0" width="150" height="200"></rect>
      </g>
      <g transform="matrix(0.8,0,0,0.8,0,0)">
        <g id="dog_9opl9_body">
          <g id="dog_9opl9_body_before">
            <g transform="matrix(1,0,0,1,60,-70)">
              <g transform="matrix(0.866,0.5,-0.5,0.866,-2,-94)" id="dog_9opl9_tail">
                <svg xmlns="http://www.w3.org/2000/svg" width="47.75" height="96.34" viewBox="0 0 47.75 96.34">
                  <defs>
                    <style>.cls-d6-t-1{}.cls-d6-t-2,.cls-d6-t-4{fill:#231f20;}.cls-d6-t-3{fill:#fff;opacity:0.69;}.cls-d6-t-4{opacity:0.2;}.cls-d6-t-5{opacity:0.46;}</style>
                  </defs>
                  <path class="cls-d6-t-1 primary-color-body" d="M14.71,95.63a.7.7,0,0,1-.37-.11L1.05,87.33a.69.69,0,0,1-.13-1.1c.36-.36,36.5-36.74,39.28-81.83a.65.65,0,0,1,0-.19c.3-.82,1.4-3.5,3.07-3.5S45.59,3,45.83,3.76s10,53.63-30.64,91.68A.71.71,0,0,1,14.71,95.63Z" fill="#f8ca33"></path>
                  <path class="cls-d6-t-2" d="M43.31,1.42c.6,0,1.24.65,1.84,2.55,0,0,10.37,52.73-30.44,91L1.42,86.73S38.07,50.34,40.91,4.45c0,0,1.1-3,2.4-3m0-1.42h0C41.24,0,40,2.77,39.57,4a1.77,1.77,0,0,0-.08.4C38.05,27.74,27.52,48.59,19,62A154.14,154.14,0,0,1,.42,85.73,1.39,1.39,0,0,0,0,86.89a1.41,1.41,0,0,0,.66,1L14,96.13A1.4,1.4,0,0,0,15.68,96c21.38-20,28.64-44,31-60.64,2.51-18,0-31.06-.1-31.61a.83.83,0,0,0,0-.15C46.23,2.67,45.39,0,43.31,0Z"></path>
                  <path class="cls-d6-t-3" d="M2.18,87.11l.42-.26c5-3.27,9.15-7.79,13-12.36A113.84,113.84,0,0,0,34.24,43.2,116.61,116.61,0,0,0,40,23.36a142.58,142.58,0,0,0,1.64-18.7c0-.54-.06-1.09-.11-1.64a10.51,10.51,0,0,0-.66,1.43C38.07,50.34,1.42,86.73,1.42,86.73l.67.42Z"></path>
                  <path class="cls-d6-t-4" d="M45.49,6.15A70.64,70.64,0,0,1,44.1,17.69c-1.47,7.94-3.09,15.94-5.33,23.7C34,57.87,26.3,73.4,14.22,85.74a3.11,3.11,0,0,1-.58.45c-.62.59-1.26,1.18-1.91,1.76C10.58,89,9.46,90,8.28,91l6.43,4C50.62,61.29,46.9,16.44,45.49,6.15Z"></path>
                  <path class="cls-d6-t-5 secondary-color-patch" d="M45.39,38.72a33.09,33.09,0,0,0,1.16-5.22,52.55,52.55,0,0,0,.78-6,42.79,42.79,0,0,0-.5-5,11.22,11.22,0,0,0-2.52.18c-4.55.86-6.13,4.63-5,8.41a6,6,0,0,0,.26,2.46c.81,2.71,3,4.71,5.58,6.16C45.2,39.37,45.29,39,45.39,38.72Z" fill="#e6e6e6"></path>
                  <path class="cls-d6-t-5 secondary-color-patch" d="M36.49,51.06A26.53,26.53,0,0,0,28,47.19a30.1,30.1,0,0,1-2.27,4.11C23.8,54.57,22,57.93,19.9,61.07a16.43,16.43,0,0,0,6.46,4.25A18.57,18.57,0,0,0,36,67.71c.64-1.8,1.44-3.54,2.22-5.3.91-2.07,1.21-4.36,2.27-6.38Q38.57,53.48,36.49,51.06Z" fill="#e6e6e6"></path>
                  <path class="cls-d6-t-5 secondary-color-patch" d="M20.73,85.09A8.68,8.68,0,0,0,22.3,88l.16-.18c1.39-1.46,2.64-3,3.91-4.59a50.2,50.2,0,0,0,3.82-4.92c.49-.77.86-1.61,1.33-2.4a12.23,12.23,0,0,0,.62-1.12,13.53,13.53,0,0,0-6.63-.56c-4.55.86-6.13,4.63-5,8.41A5.8,5.8,0,0,0,20.73,85.09Z" fill="#e6e6e6"></path>
                  <desc>Created with Snap</desc>
                </svg>
              </g>
            </g>
          </g>
          <g id="dog_9opl9_body_main" transform="matrix(1,0,0,1,-86.635,-263.2)">
            <svg xmlns="http://www.w3.org/2000/svg" viewBox="0 0 173.27 263.2" width="173.27" height="263.2">
              <defs>
                <style>
      .cls-b3-b-patch{opacity:0.46;}
      .cls-b3-b-1,.cls-b3-b-5{}.cls-b3-b-2,.cls-b3-b-4{fill:#231f20;}.cls-b3-b-3{fill:#fff;}.cls-b3-b-3{opacity:0.69;}.cls-b3-b-4{opacity:0.2;}.cls-b3-b-5{stroke:#231f20;stroke-miterlimit:10;stroke-width:1.42px;}.cls-b3-b-7{fill:#3f3b3c;}</style>
              </defs>
              <path class="cls-b3-b-1 primary-color-body" d="M32,214.35c-.86,0-1.71,0-2.52-.06-4.66-.26-9.93-.54-15.1-1l-.54,0c-3.7-.34-7.88-.73-10.87-3.33-6.37-5.56,2.58-22.86,2.68-23,3.46-6.62,8.39-7.51,12.75-7.51a64.8,64.8,0,0,1,6.81.51l.86.09a24,24,0,0,0,2.54.17,10.65,10.65,0,0,0,1.67-.12c-.61-1.11-1.33-2.2-2-3.25s-1.24-1.87-1.8-2.84l-.41-.71a131.1,131.1,0,0,1-7.3-13.8,138.85,138.85,0,0,1-7.43-22.64c-1.42-5.86-3-12.51-1.93-19.13,1.39-8.25,6.1-14.8,12.59-17.51A28.55,28.55,0,0,1,33,98c11.12,0,23.25,6.07,31.65,15.83l.66.77.85.94a14.28,14.28,0,0,1,3.35,4.89c.81,2.41,0,4.82-1,7.08a114.56,114.56,0,0,0-8.87,49.93c.14,3,.23,6,.32,9,.12,3.66.24,7.45.43,11.16.33,6.26-1.3,9.47-5.61,11A29.67,29.67,0,0,1,50,211a47.85,47.85,0,0,1-18,3.32Z" fill="#f8ca33"></path>
              <path class="cls-b3-b-2" d="M33,98.66c11.78,0,23.63,6.89,31.11,15.58l.71.82c1.48,1.68,3.29,3.37,4,5.55s-.06,4.52-1,6.57c-6.76,15.47-9.69,33.4-8.94,50.24.31,6.73.4,13.44.75,20.14.29,5.6-.88,8.83-5.23,10.37a27.21,27.21,0,0,1-4.76,2.45A47,47,0,0,1,32,213.64c-.85,0-1.68,0-2.48-.06-5-.27-10.09-.55-15.07-1-3.67-.35-8.06-.64-11-3.22-4.92-4.29.32-17.37,2.83-22.16,3-5.77,7.17-7.13,12.13-7.13a73.41,73.41,0,0,1,7.59.6,25.63,25.63,0,0,0,2.62.17,9.36,9.36,0,0,0,2.72-.35c-1.18-2.41-2.93-4.6-4.28-6.92a140.39,140.39,0,0,1-7.67-14.44A138.69,138.69,0,0,1,12,136.58c-1.51-6.19-3-12.51-1.92-18.84,1.22-7.22,5.23-14.08,12.16-17A27.63,27.63,0,0,1,33,98.66m0-1.42a29.13,29.13,0,0,0-11.28,2.22c-6.72,2.8-11.58,9.55-13,18-1.14,6.77.49,13.49,1.94,19.41a138.11,138.11,0,0,0,7.46,22.76,133.07,133.07,0,0,0,7.33,13.87l.41.72c.57,1,1.21,1.94,1.83,2.87.52.77,1,1.51,1.46,2.26h-.5a22.93,22.93,0,0,1-2.46-.16l-.86-.09a63.36,63.36,0,0,0-6.89-.52c-4.31,0-9.72.9-13.38,7.89-.1.18-9.31,18-2.51,23.89,3.15,2.75,7.65,3.17,11.27,3.51l.53.05c5.18.49,10.46.77,15.13,1,.83,0,1.69.07,2.56.07a48.46,48.46,0,0,0,18.24-3.38,29.78,29.78,0,0,0,4.85-2.48c5.71-2.12,6.24-7.1,6-11.71-.2-3.71-.31-7.49-.43-11.15-.09-2.94-.18-6-.32-9a113.71,113.71,0,0,1,8.81-49.61c1-2.27,1.89-4.95,1-7.58a15.16,15.16,0,0,0-3.5-5.14l-.8-.89-.06-.07-.65-.74C56.61,103.4,44.28,97.24,33,97.24Z"></path>
              <path class="cls-b3-b-3" d="M19.37,159.11c.73,1.68,1.52,3.31,2.35,4.92-1.14-6.65-1.62-13.43-2.4-20.14-1.22-10.5-3.09-23.23,3.57-32.44,5.41-7.49,15.46-9.58,24.2-9.15.49,0,1,.06,1.45.1-8.3-3.93-17.72-5.22-26.32-1.63-6.93,2.89-10.94,9.75-12.16,17-1.06,6.33.41,12.64,1.92,18.84A138.69,138.69,0,0,0,19.37,159.11Z"></path>
              <path class="cls-b3-b-4" d="M57.49,140.09c-1.88,5.33-2.4,11.06-2.84,16.66-.94,12.08-.56,25.37-5.9,36.55-5.81,12.15-19.23,14.89-31.41,11.34a31.32,31.32,0,0,1-14.56-8.89c-1.59,5.23-2.32,11,.65,13.59s7.34,2.87,11,3.22c5,.47,10.07.75,15.07,1,6.4.34,14.31-.67,20.16-3.2a27.21,27.21,0,0,0,4.76-2.45c4.35-1.54,5.52-4.77,5.23-10.37-.35-6.7-.44-13.41-.75-20.14-.75-16.84,2.18-34.77,8.94-50.24.79-1.83,1.51-3.86,1.13-5.84C64.41,127.13,60,133,57.49,140.09Z"></path>
              <path class="cls-b3-b-2" d="M32.86,185.55a.83.83,0,0,0-.38-.31l-.17-.05a5.7,5.7,0,0,0-1.88.15,14,14,0,0,0-1.91.38A13.46,13.46,0,0,0,25,187.25a10.82,10.82,0,0,0-4.76,5.9v0a29.61,29.61,0,0,0-1,9.79c.09,2.24.26,4.51.53,6.75a9.75,9.75,0,0,0,.85,3.49c.65.08,1.3.19,1.94.32a65.26,65.26,0,0,1-1-9.87,30.06,30.06,0,0,1,.07-4.84c.06-1,.14-2.08.25-3.11a10.24,10.24,0,0,1,3.34-6.92,13.53,13.53,0,0,1,6.64-2.67h0l1-.17C33,185.92,32.93,185.67,32.86,185.55Z"></path>
              <path class="cls-b3-b-2" d="M21.63,184.9a.81.81,0,0,0-.39-.34l-.16-.05a5.06,5.06,0,0,0-1.89.16,12.76,12.76,0,0,0-1.91.41,13.11,13.11,0,0,0-3.57,1.64A11.5,11.5,0,0,0,9,193.06v0a33.75,33.75,0,0,0-1,10.51c.08,2.41.26,4.86.52,7.26,0,.26.06.59.11,1l.12,0a2.79,2.79,0,0,0,.39.1l.81.15c.33,0,.66.13,1,.2a72.8,72.8,0,0,1-.64-7.95,34.69,34.69,0,0,1,.08-5.2c.06-1.12.13-2.23.24-3.34a11.3,11.3,0,0,1,3.34-7.44,13,13,0,0,1,6.64-2.88h0l1-.18C21.78,185.29,21.69,185,21.63,184.9Z"></path>
              <path class="cls-b3-b-1 primary-color-body" d="M141.28,214.35a47.85,47.85,0,0,1-18-3.32,29.67,29.67,0,0,1-4.81-2.46c-4.31-1.57-5.93-4.78-5.61-11,.2-3.72.32-7.5.43-11.16.09-3,.19-6,.32-9a114.56,114.56,0,0,0-8.87-49.93c-1-2.26-1.79-4.67-1-7.08a14.42,14.42,0,0,1,3.35-4.89c.27-.3.55-.6.81-.9l.71-.81C117.07,104,129.19,98,140.31,98a28.51,28.51,0,0,1,11,2.16c6.49,2.71,11.2,9.26,12.59,17.51,1.11,6.63-.5,13.27-1.93,19.13a138.85,138.85,0,0,1-7.43,22.64,130.87,130.87,0,0,1-7.29,13.79l-.41.72c-.56,1-1.2,1.92-1.81,2.84s-1.43,2.14-2,3.25a10.69,10.69,0,0,0,1.68.12,24,24,0,0,0,2.53-.17l.87-.09a64.61,64.61,0,0,1,6.8-.51c4.36,0,9.29.89,12.76,7.51.09.17,9.05,17.47,2.67,23-3,2.6-7.17,3-10.87,3.33l-.54,0c-5.16.49-10.44.77-15.09,1C143,214.33,142.14,214.35,141.28,214.35Z" fill="#f8ca33"></path>
              <path class="cls-b3-b-2" d="M140.31,98.66a27.63,27.63,0,0,1,10.74,2.11c6.93,2.89,10.94,9.75,12.16,17,1.07,6.33-.41,12.65-1.92,18.84a137.73,137.73,0,0,1-7.39,22.53,140.39,140.39,0,0,1-7.67,14.44c-1.35,2.32-3.1,4.51-4.27,6.92a9.27,9.27,0,0,0,2.72.35,25.62,25.62,0,0,0,2.61-.17,73.62,73.62,0,0,1,7.59-.6c5,0,9.11,1.36,12.13,7.13,2.51,4.79,7.76,17.87,2.83,22.16-3,2.58-7.34,2.87-11,3.22-5,.47-10.07.75-15.06,1q-1.22.06-2.49.06a47,47,0,0,1-17.68-3.26,27.56,27.56,0,0,1-4.76-2.45c-4.34-1.54-5.52-4.77-5.23-10.37.35-6.7.45-13.41.75-20.14.75-16.84-2.18-34.77-8.93-50.24-.9-2.05-1.7-4.37-1-6.57s2.55-3.87,4-5.55l.71-.82c7.49-8.69,19.33-15.58,31.11-15.58m0-1.42h0c-11.32,0-23.65,6.16-32.18,16.08-.22.25-.46.52-.7.81l-.8.89a14.88,14.88,0,0,0-3.5,5.14c-.89,2.63,0,5.31,1,7.58a113.71,113.71,0,0,1,8.81,49.61c-.13,3-.23,6.06-.32,9-.11,3.65-.23,7.43-.42,11.13-.25,4.61.28,9.59,6,11.71a29.78,29.78,0,0,0,4.85,2.48,48.54,48.54,0,0,0,18.24,3.38c.87,0,1.73,0,2.56-.07,4.67-.25,10-.53,15.13-1l.54-.05c3.61-.34,8.11-.76,11.27-3.51,6.79-5.92-2.42-23.71-2.52-23.89-3.66-7-9.07-7.89-13.38-7.89a63.18,63.18,0,0,0-6.88.52l-.86.09a23.11,23.11,0,0,1-2.46.16h-.51c.45-.75,1-1.49,1.46-2.26s1.26-1.88,1.83-2.87l.41-.71a133.23,133.23,0,0,0,7.33-13.88,139,139,0,0,0,7.47-22.76c1.44-5.92,3.08-12.64,1.94-19.41-1.43-8.49-6.3-15.24-13-18a29.22,29.22,0,0,0-11.29-2.22Z"></path>
              <path class="cls-b3-b-3" d="M153.9,159.11c-.73,1.68-1.52,3.31-2.35,4.92,1.14-6.65,1.62-13.43,2.4-20.14,1.22-10.5,3.1-23.23-3.56-32.44-5.42-7.49-15.47-9.58-24.21-9.15-.49,0-1,.06-1.45.1,8.3-3.93,17.72-5.22,26.32-1.63,6.93,2.89,10.94,9.75,12.16,17,1.07,6.33-.41,12.64-1.92,18.84A137.73,137.73,0,0,1,153.9,159.11Z"></path>
              <path class="cls-b3-b-4" d="M115.78,140.09c1.88,5.33,2.41,11.06,2.84,16.66.94,12.08.56,25.37,5.9,36.55,5.81,12.15,19.23,14.89,31.41,11.34a31.32,31.32,0,0,0,14.56-8.89c1.59,5.23,2.32,11-.65,13.59s-7.34,2.87-11,3.22c-5,.47-10.06.75-15.06,1-6.41.34-14.32-.67-20.17-3.2a27.56,27.56,0,0,1-4.76-2.45c-4.34-1.54-5.52-4.77-5.23-10.37.35-6.7.45-13.41.75-20.14.75-16.84-2.18-34.77-8.93-50.24a10.25,10.25,0,0,1-1.14-5.84C108.86,127.13,113.29,133,115.78,140.09Z"></path>
              <path class="cls-b3-b-2" d="M140.41,185.55a.83.83,0,0,1,.38-.31l.17-.05a5.68,5.68,0,0,1,1.88.15,13.87,13.87,0,0,1,1.92.38,13.54,13.54,0,0,1,3.56,1.53,10.82,10.82,0,0,1,4.76,5.9v0a29.61,29.61,0,0,1,1,9.79c-.09,2.24-.26,4.51-.52,6.75a9.78,9.78,0,0,1-.86,3.49c-.65.08-1.3.19-1.94.32a65.26,65.26,0,0,0,1-9.87,30.06,30.06,0,0,0-.07-4.84c-.06-1-.13-2.08-.25-3.11a10.27,10.27,0,0,0-3.33-6.92,13.57,13.57,0,0,0-6.64-2.67h0l-1-.17C140.26,185.92,140.34,185.67,140.41,185.55Z"></path>
              <path class="cls-b3-b-2" d="M151.65,184.9a.74.74,0,0,1,.38-.34l.17-.05a5,5,0,0,1,1.88.16,12.76,12.76,0,0,1,1.91.41,13.11,13.11,0,0,1,3.57,1.64,11.52,11.52,0,0,1,4.76,6.34v0a34,34,0,0,1,1,10.51c-.08,2.41-.25,4.86-.52,7.26,0,.26-.06.59-.11,1l-.11,0a2.92,2.92,0,0,1-.4.1l-.81.15c-.33,0-.66.13-1,.2a75.36,75.36,0,0,0,.63-7.95,34.69,34.69,0,0,0-.08-5.2c0-1.12-.13-2.23-.24-3.34a11.3,11.3,0,0,0-3.34-7.44,13,13,0,0,0-6.64-2.88h0l-1-.18C151.49,185.29,151.58,185,151.65,184.9Z"></path>
              <path class="cls-b3-b-5 primary-color-body" d="M149.35,84.76c1.63-9.71-1.36-22.43-3.22-32.07a71.29,71.29,0,0,0-4.69-15.53c-.41-.68-.82-1.36-1.25-2C132.79,23.61,122,12.8,109.25,6.62A66,66,0,0,0,96.67,2.23l-1.17.39a50.39,50.39,0,0,0-29.15.49,73.77,73.77,0,0,0-31,20.6c-4.9,5.45-12,15.8-15.07,25.87-.12.25-.25.49-.36.74A50.58,50.58,0,0,0,17,58.68c-1.67,10.43-1,20.87,2.22,28.38,1.51-2.2,2.13-4.76,3.38-7,.11,5.11-3.24,16,.51,19.85A13,13,0,0,0,26.58,94c1.21,5.05,1.39,11.21,3,16.61,1.69-1.93,1.88-4.95,3.35-6.66,3,13.66,10.44,26.21,11.18,40.36.71,13.65-2.7,31.34,4.45,43.71,7.36,12.72,21,23,36.68,23.12,17.6.09,25.14-10.31,30.07-25.59,5.12-15.88,16.82-56.22,12.3-83.76,2.63,2.55,3.86,6.28,5.58,9.52A110.84,110.84,0,0,0,136,94.2a47.9,47.9,0,0,1,8,6.75c1.14-7,2-14.11-1.92-20.5A15,15,0,0,0,149.35,84.76Z" fill="#f8ca33"></path>
              <path class="cls-b3-b-4" d="M117.14,136.06c-8.25,10.17-19,19.83-32,23.34-14.17,3.84-28.82-1.6-38.52-12.33-.92-1-1.77-2.08-2.58-3.16l0,.39c.71,13.65-2.7,31.34,4.45,43.71,7.36,12.72,21,23,36.68,23.12,17.6.09,25.14-10.31,30.07-25.59,4.09-12.7,12.38-41,13.23-65.93A132.31,132.31,0,0,1,117.14,136.06Z"></path>
              <path class="cls-b3-b-5 primary-color-body" d="M149.35,84.76c1.63-9.71-1.36-22.43-3.22-32.07a71.29,71.29,0,0,0-4.69-15.53c-.41-.68-.82-1.36-1.25-2C132.79,23.61,122,12.8,109.25,6.62A66,66,0,0,0,96.67,2.23l-1.17.39a50.39,50.39,0,0,0-29.15.49,73.77,73.77,0,0,0-31,20.6c-4.9,5.45-12,15.8-15.07,25.87-.12.25-.25.49-.36.74A50.58,50.58,0,0,0,17,58.68c-1.67,10.43-1,20.87,2.22,28.38,1.51-2.2,2.13-4.76,3.38-7,.11,5.11-3.24,16,.51,19.85A13,13,0,0,0,26.58,94c1.21,5.05,1.39,11.21,3,16.61,1.69-1.93,1.88-4.95,3.35-6.66,3,13.66,10.44,26.21,11.18,40.36.71,13.65-2.7,31.34,4.45,43.71,7.36,12.72,21,23,36.68,23.12,17.6.09,25.14-10.31,30.07-25.59,5.12-15.88,16.82-56.22,12.3-83.76,2.63,2.55,3.86,6.28,5.58,9.52A110.84,110.84,0,0,0,136,94.2a47.9,47.9,0,0,1,8,6.75c1.14-7,2-14.11-1.92-20.5A15,15,0,0,0,149.35,84.76Z" fill="#f8ca33"></path>
              <path class="cls-b3-b-6 secondary-color-body" d="M99.54,21.71c-2.13-1.15-6-1.27-7.74-2.81a11,11,0,0,1-.9-.92c-.62-.05-1.23-.11-1.85-.15-7.43-.5-15.21,2.79-21,7.31-.75.58-1.45,1.17-2.13,1.75C62,31.77,55.45,36.71,52.3,40.1c-5.93,6.37-13,13.65-15.57,22.13,3-1.1,9.76-4.2,12.43-2.22C43.57,66.5,37.27,73,37.22,82.36c3.21-2.12,6.27-5.45,10.07-6.61-.38,3.33-2.74,7.56-3.35,11.34-1,6.28,0,12.81,1.08,19,.79-3,2.76-9.93,6.1-10.88-2.72,9.62,3.1,17.83,8.19,25.41a358.75,358.75,0,0,0,24.48,31.6c2.26-1.37,3.6-4.78,5.14-7,4.23-6.15,8.78-12.2,12.78-18.5,6.82-10.73,9-25,7-37.49,2.63,2.94,4.69,6.12,7.21,9.06,4.91-7.64,3.28-13.06,1.74-21.24a83.93,83.93,0,0,0,8.2,3.71c2.42-9.43-2-17.25-7.67-24.22,2.69,2,6.46,4.71,9.76,5.36,1.32-11-8.45-22-15.59-29.11C108.45,28.88,104.43,24.36,99.54,21.71Z" fill="#e6e6e6"></path>
              <path class="cls-b3-b-4" d="M99.54,21.71c-2.13-1.15-6-1.27-7.74-2.81a11,11,0,0,1-.9-.92c-.62-.05-1.23-.11-1.85-.15-7.43-.5-15.21,2.79-21,7.31-.76.58-1.46,1.18-2.15,1.77a77.67,77.67,0,0,1-9.08,9,57.62,57.62,0,0,0,11.72,2.58,115.82,115.82,0,0,0,16.24.71c5.07-.08,10.44-1,15.42.29,11.74,3,11.68,15.46,8.89,25-2.3,7.85-5.85,15.16-5.73,23.51.12,8.54,1,16.25-1.12,24.68-3.55,14.08-11.19,26.75-19,38.91l.56.67c2.26-1.37,3.6-4.78,5.14-7,4.23-6.15,8.78-12.2,12.78-18.5,6.82-10.73,9-25,7-37.49,2.63,2.94,4.69,6.12,7.21,9.06,4.91-7.64,3.28-13.06,1.74-21.24a83.93,83.93,0,0,0,8.2,3.71c2.42-9.43-2-17.25-7.67-24.22,2.69,2,6.46,4.71,9.76,5.36,1.32-11-8.45-22-15.59-29.11C108.45,28.88,104.43,24.36,99.54,21.71Z"></path>
              <path class="cls-b3-b-1 primary-color-body" d="M26,89.3a71.73,71.73,0,0,0,.46,15A286.06,286.06,0,0,0,40,160.05c5.86,16.53,5,36.37,1.65,53.48-.72,3.66-.76,9.27-4.18,11-3,1.54-9.9,1.27-13.45,1.34-14.22.29-21,14.46-18,26.78S33,262,42.78,261c6.55-.65,16.74-1.56,22.43-5,5.92-3.64,5.27-11.64,5-17.59-1.21-23.47,4.59-44.44,10.3-66.77,3.57-14-7.19-25.78-10.35-39.24" fill="#f8ca33"></path>
              <path class="cls-b3-b-7" d="M70.12,132.37l.24.95c.17.63.38,1.58.79,2.78a101.64,101.64,0,0,0,4.11,10.34c1,2.22,2.07,4.66,3.08,7.41A38.71,38.71,0,0,1,80.62,163a25.4,25.4,0,0,1,0,5.23,37.21,37.21,0,0,1-1.18,5.46q-1.49,5.65-3.13,11.92a254.25,254.25,0,0,0-5.78,27.72,138.73,138.73,0,0,0-1.37,15.76c-.07,2.72-.07,5.49,0,8.29a83.09,83.09,0,0,1,.1,8.34,13.18,13.18,0,0,1-2.52,7.5c-1.61,2-4.37,3.08-7.11,3.95-5.58,1.67-11.65,2.2-17.83,2.8a114.41,114.41,0,0,1-18.72.76A33.84,33.84,0,0,1,14,259c-2.88-1-5.46-2.86-6.49-5.57-.13-.33-.21-.69-.32-1l-.22-1.15-.22-1.15L6.6,249c0-.39-.08-.77-.09-1.16v-1.17a16.33,16.33,0,0,1,.14-2.32,21.92,21.92,0,0,1,2.79-8.7,16.92,16.92,0,0,1,6.21-6.3,17.64,17.64,0,0,1,8.43-2.3,91.48,91.48,0,0,0,9.32-.35,13.1,13.1,0,0,0,4.79-1.29,5.83,5.83,0,0,0,2-1.87,9.51,9.51,0,0,0,1.09-2.28,26.54,26.54,0,0,0,1-4.54c.19-1.5.41-2.84.69-4.32.55-2.89.95-5.77,1.32-8.62,1.36-11.41,1.34-22.47-.53-32.56-.22-1.27-.49-2.51-.78-3.74s-.63-2.43-1-3.62c-.69-2.38-1.52-4.67-2.31-6.87-1.56-4.44-2.94-8.73-4.17-12.86a301,301,0,0,1-8.9-39.84,68.19,68.19,0,0,1-.75-11.06c0-2.54.12-3.88.12-3.88s-.12,1.33-.22,3.87a67.13,67.13,0,0,0,.48,11.12,291.44,291.44,0,0,0,8.14,40.11c1.17,4.17,2.48,8.51,4,13,.76,2.25,1.54,4.5,2.19,6.83.3,1.17.65,2.35.88,3.56s.52,2.42.71,3.67c1.71,9.91,1.6,20.79.15,32-.39,2.81-.81,5.65-1.38,8.5s-.78,6-1.65,8.54a5.11,5.11,0,0,1-2.12,3,11.34,11.34,0,0,1-4,1c-2.93.32-6,.24-9.12.28a20,20,0,0,0-9.53,2.56,19.32,19.32,0,0,0-7.07,7.12A24.27,24.27,0,0,0,4.32,244a19.84,19.84,0,0,0-.16,2.55v1.29c0,.42.07.85.1,1.27l.11,1.29.24,1.26L4.85,253c.14.44.25.89.42,1.32a10.59,10.59,0,0,0,3.26,4.39,15.86,15.86,0,0,0,4.6,2.53A35.75,35.75,0,0,0,23,263.07a114.65,114.65,0,0,0,19.1-.84c6.16-.64,12.34-1.2,18.23-3a27.86,27.86,0,0,0,4.31-1.72,11.44,11.44,0,0,0,3.77-3,15.1,15.1,0,0,0,2.9-8.66,80.32,80.32,0,0,0-.19-8.56c-.13-2.76-.16-5.48-.13-8.17a141.7,141.7,0,0,1,1.16-15.59,265.19,265.19,0,0,1,5.33-27.65q1.53-6.28,2.92-12a37.39,37.39,0,0,0,1.09-5.62,18.08,18.08,0,0,0,.1-2.74,19.22,19.22,0,0,0-.19-2.65,38.91,38.91,0,0,0-2.51-9.28c-1.08-2.75-2.24-5.17-3.25-7.37a102.53,102.53,0,0,1-4.35-10.22c-.44-1.19-.68-2.13-.86-2.76Z"></path>
              <path class="cls-b3-b-4" d="M70.19,132.69c-1.85,6.88-.9,14.31-.52,21.31,1,17.56-2,34.85-5.28,52.05a159.19,159.19,0,0,1-1.82,16.39C60.05,237.11,52.49,252,35.65,254.31c-11.56,1.57-23.27-2.71-30-11.42A24.92,24.92,0,0,0,6,252.65C8.9,265,33,262,42.78,261c6.55-.65,16.74-1.56,22.43-5,5.92-3.64,5.27-11.64,5-17.59-1.21-23.47,4.59-44.44,10.3-66.77C84,157.74,73.45,146,70.19,132.69Z"></path>
              <path class="cls-b3-b-2" d="M38.45,229.68l-.19-.06a7.07,7.07,0,0,0-2.24.17,17.18,17.18,0,0,0-2.27.44A16.61,16.61,0,0,0,29.5,232a12.46,12.46,0,0,0-5.65,6.72v0a32.28,32.28,0,0,0-1.16,11.15c.1,2.56.31,5.15.62,7.69.13,1.1.35,3.3,1.31,4.41a9.79,9.79,0,0,1,1.08.07l.11,0c.27,0,.55,0,.83-.06a70.23,70.23,0,0,1-1.21-11.3,32.66,32.66,0,0,1,.09-5.51c.07-1.19.15-2.37.29-3.55a11.46,11.46,0,0,1,4-7.88c2.32-1.87,5-2.56,7.9-3h0l1.16-.19c.24,0,.14-.32.06-.45A.91.91,0,0,0,38.45,229.68Z"></path>
              <path class="cls-b3-b-2" d="M25.56,229.25a.91.91,0,0,0-.46-.35.66.66,0,0,0-.2-.06,7,7,0,0,0-2.23.17,17.62,17.62,0,0,0-2.28.43,16.57,16.57,0,0,0-4.24,1.75,12.44,12.44,0,0,0-5.65,6.71v0A32.28,32.28,0,0,0,9.33,249.1c.1,2.55.3,5.15.62,7.69.06.53.15,1.31.32,2.11a2,2,0,0,1,.76.71c.5.14,1,.25,1.5.39l.58.2a69.81,69.81,0,0,1-1-10.31,31.78,31.78,0,0,1,.09-5.52c.06-1.18.15-2.36.29-3.54a11.46,11.46,0,0,1,4-7.89,16.47,16.47,0,0,1,7.89-3.05h0l1.17-.19C25.74,229.66,25.64,229.38,25.56,229.25Z"></path>
              <path class="cls-b3-b-1 primary-color-body" d="M137.72,89.3a71.73,71.73,0,0,1-.46,15,286.78,286.78,0,0,1-13.59,55.7c-5.86,16.53-5,36.37-1.65,53.48.72,3.66.76,9.27,4.18,11,3,1.54,9.89,1.27,13.45,1.34,14.21.29,21,14.46,18,26.78s-27,9.35-36.8,8.37c-6.55-.65-16.75-1.56-22.43-5-5.92-3.64-5.27-11.64-5-17.59,1.21-23.47-4.6-44.44-10.3-66.77-3.57-14,7.19-25.78,10.35-39.24" fill="#f8ca33"></path>
              <path class="cls-b3-b-7" d="M93.56,132.37l-.27.94c-.18.63-.42,1.57-.86,2.76a102.53,102.53,0,0,1-4.35,10.22c-1,2.2-2.18,4.62-3.25,7.37a38.91,38.91,0,0,0-2.51,9.28,19.22,19.22,0,0,0-.19,2.65,18.08,18.08,0,0,0,.1,2.74A36.18,36.18,0,0,0,83.32,174q1.38,5.67,2.92,12a265.19,265.19,0,0,1,5.33,27.65,141.7,141.7,0,0,1,1.16,15.59c0,2.69,0,5.41-.14,8.17a80.38,80.38,0,0,0-.18,8.56,15.1,15.1,0,0,0,2.9,8.66,11.44,11.44,0,0,0,3.77,3,27.46,27.46,0,0,0,4.31,1.72c5.89,1.8,12.07,2.36,18.23,3a114.61,114.61,0,0,0,19.1.84,35.61,35.61,0,0,0,9.82-1.85,15.91,15.91,0,0,0,4.61-2.53,10.59,10.59,0,0,0,3.26-4.39c.17-.43.28-.88.42-1.32l.24-1.28.23-1.26.12-1.29c0-.42.09-.85.1-1.27v-1.29a19.84,19.84,0,0,0-.16-2.55,24.27,24.27,0,0,0-3.11-9.61,19.39,19.39,0,0,0-7.07-7.12,20,20,0,0,0-9.53-2.56c-3.15,0-6.19,0-9.12-.28a11.34,11.34,0,0,1-4-1,5.11,5.11,0,0,1-2.12-3c-.87-2.59-1-5.67-1.66-8.54s-1-5.69-1.37-8.5c-1.45-11.24-1.56-22.12.14-32,.19-1.25.45-2.47.72-3.67s.58-2.39.88-3.56c.64-2.33,1.42-4.58,2.19-6.83,1.49-4.48,2.81-8.82,4-13a291.44,291.44,0,0,0,8.14-40.11,67.13,67.13,0,0,0,.48-11.12c-.1-2.54-.22-3.87-.22-3.87s.09,1.34.12,3.88a68.19,68.19,0,0,1-.75,11.06,302.67,302.67,0,0,1-8.9,39.84q-1.84,6.19-4.17,12.86c-.79,2.2-1.62,4.49-2.32,6.87-.32,1.19-.69,2.39-1,3.62s-.57,2.47-.78,3.74c-1.87,10.09-1.89,21.15-.53,32.56.37,2.85.77,5.73,1.32,8.62.27,1.48.49,2.82.69,4.32a26.54,26.54,0,0,0,1,4.54,9.51,9.51,0,0,0,1.09,2.28,5.83,5.83,0,0,0,2,1.87,13.1,13.1,0,0,0,4.78,1.29,91.78,91.78,0,0,0,9.33.35,17.67,17.67,0,0,1,8.43,2.3,17,17,0,0,1,6.21,6.3,22.08,22.08,0,0,1,2.79,8.7,16.33,16.33,0,0,1,.14,2.32v1.17c0,.39-.06.77-.09,1.16l-.11,1.17-.21,1.15-.22,1.15c-.11.34-.19.7-.32,1-1,2.71-3.61,4.54-6.49,5.57a33.91,33.91,0,0,1-9.16,1.73,114.41,114.41,0,0,1-18.72-.76c-6.18-.6-12.25-1.13-17.83-2.8-2.74-.87-5.5-1.93-7.11-3.95a13.11,13.11,0,0,1-2.52-7.5,80.22,80.22,0,0,1,.1-8.34c.11-2.8.11-5.57,0-8.29a138.73,138.73,0,0,0-1.37-15.76,256.64,256.64,0,0,0-5.78-27.72q-1.65-6.25-3.13-11.92a36,36,0,0,1-1.18-5.46,23.66,23.66,0,0,1,0-5.23,38.71,38.71,0,0,1,2.28-9.17c1-2.75,2.12-5.19,3.07-7.41a99.85,99.85,0,0,0,4.12-10.34c.41-1.2.62-2.15.78-2.78Z"></path>
              <path class="cls-b3-b-4" d="M93.48,132.69c1.85,6.88.91,14.31.53,21.31-1,17.56,2,34.85,5.27,52.05a162,162,0,0,0,1.83,16.39c2.52,14.67,10.08,29.56,26.92,31.87,11.56,1.57,23.26-2.71,30-11.42a25.11,25.11,0,0,1-.34,9.76c-2.92,12.3-27,9.35-36.8,8.37-6.55-.65-16.75-1.56-22.43-5-5.92-3.64-5.27-11.64-5-17.59,1.21-23.47-4.6-44.44-10.3-66.77C79.67,157.74,90.23,146,93.48,132.69Z"></path>
              <path class="cls-b3-b-2" d="M125.22,229.68l.2-.06a7.07,7.07,0,0,1,2.24.17,17.18,17.18,0,0,1,2.27.44,16.4,16.4,0,0,1,4.24,1.74,12.38,12.38,0,0,1,5.65,6.72l0,0A32.28,32.28,0,0,1,141,249.88c-.1,2.56-.31,5.15-.62,7.69-.13,1.1-.35,3.3-1.31,4.41a9.79,9.79,0,0,0-1.08.07l-.12,0c-.26,0-.54,0-.82-.06a71.39,71.39,0,0,0,1.21-11.3,32.66,32.66,0,0,0-.09-5.51c-.07-1.19-.16-2.37-.29-3.55a11.43,11.43,0,0,0-4-7.88c-2.31-1.87-5-2.56-7.89-3h0l-1.16-.19c-.24,0-.14-.32-.06-.45A.92.92,0,0,1,125.22,229.68Z"></path>
              <path class="cls-b3-b-2" d="M138.12,229.25a.91.91,0,0,1,.46-.35.7.7,0,0,1,.19-.06A7.07,7.07,0,0,1,141,229a17.15,17.15,0,0,1,2.27.43,16.63,16.63,0,0,1,4.25,1.75,12.44,12.44,0,0,1,5.65,6.71v0a32.28,32.28,0,0,1,1.16,11.15c-.1,2.55-.31,5.15-.62,7.69a19.6,19.6,0,0,1-.33,2.11,2.06,2.06,0,0,0-.75.71c-.5.14-1,.25-1.5.39l-.58.2a71.18,71.18,0,0,0,1-10.31,32.8,32.8,0,0,0-.09-5.52c-.07-1.18-.15-2.36-.29-3.54a11.5,11.5,0,0,0-4-7.89,16.51,16.51,0,0,0-7.9-3.05h0l-1.16-.19C137.94,229.66,138,229.38,138.12,229.25Z"></path>
              <g>
                <path class="cls-b3-b-patch secondary-color-body" d="M42.82,32.27c-.14-3.22-.53-7-2.76-9.51a7.16,7.16,0,0,0-2.14-1.64c-2.14,2.33-4.25,4.71-6.41,7-2.21,3.58-4.48,7.12-6.9,10.57a4.68,4.68,0,0,0,1.52,2.48,8.75,8.75,0,0,0,6.21,6C41,49.6,43.1,38.32,42.82,32.27Z" fill="#e6e6e6"></path>
                <path class="cls-b3-b-patch secondary-color-body" d="M145.82,50.29c-.15-.79-.29-1.59-.44-2.38-1.57-7.13-5.32-13.38-9.07-19.61-3.5,3.74-5.62,8.64-4,13.8a14,14,0,0,0,.68,1.75,7.92,7.92,0,0,0,4.54,6.73,7,7,0,0,0,3.47.82,9.39,9.39,0,0,0,5.05-.58A1.63,1.63,0,0,1,145.82,50.29Z" fill="#e6e6e6"></path>
                <path class="cls-b3-b-patch secondary-color-body" d="M122.28,13.28a21.72,21.72,0,0,0-4.62,15.22c.42,3.46,3.75,6.07,7.16,4.1s5.74-5.43,7.18-9.19A108.23,108.23,0,0,0,122.28,13.28Z" fill="#e6e6e6"></path>
                <path class="cls-b3-b-patch secondary-color-body" d="M149.9,64.61a6.78,6.78,0,0,0-.7-.12c-7.54-.77-13,2.59-16,9.42-3.22,7.14-8,17.2-3.35,24.65a12,12,0,0,0,4.52,4.26c.23-1,.48-2,.71-3.07.15-.67.3-1.34.42-2a.69.69,0,0,1,0-.13A1.48,1.48,0,0,1,135.8,96,1.55,1.55,0,0,1,138,96a1.48,1.48,0,0,1,.33.53,1.12,1.12,0,0,1,.5.2,50.5,50.5,0,0,1,5.49,4.52,17.69,17.69,0,0,1,.85-3.73c.2-2.1.28-4.23.47-6.33-.07-.58-.15-1.15-.26-1.74-.06-.38-.14-.76-.23-1.14v0a2,2,0,0,1-.34-1.3c-.07-.23-.14-.47-.22-.7s-.11-.31-.16-.46l-.12-.3c0,.09,0,.06-.05-.1a1.47,1.47,0,0,1,2.54-1.49l.16.21.06.08a1.15,1.15,0,0,1,.17-.06,1.46,1.46,0,0,1,1.62,1c0,.1,0,.19,0,.28C150.59,78.75,149.78,71.6,149.9,64.61Z" fill="#e6e6e6"></path>
                <path class="cls-b3-b-patch secondary-color-body" d="M76,183.72a9.49,9.49,0,0,0,1.5-.66c1.08-4.32,2.61-8.51,3.4-12.91s.06-8.62-1-12.82a13.67,13.67,0,0,0-2.7-1.83A8.77,8.77,0,0,0,67,154.86a10,10,0,0,0-5.94,7.24c-1.48,6.34.45,15,5,19.76,2.52,2.63,6.31,3.8,9.66,2Z" fill="#e6e6e6"></path>
                <path class="cls-b3-b-patch secondary-color-body" d="M118.53,187.87a135.51,135.51,0,0,1,2.09-21.27,10.25,10.25,0,0,0-9.29,2.5,19.08,19.08,0,0,0-4.21,5.22C98.34,177.1,93,201.15,106.4,204c3.45.74,6.53-.53,9.15-2.63l.25-.11a13.6,13.6,0,0,0,3-2A97.28,97.28,0,0,1,118.53,187.87Z" fill="#e6e6e6"></path>
                <path class="cls-b3-b-patch secondary-color-body" d="M58.8,183.76c.05-.22.09-.43.13-.64a4.64,4.64,0,0,0-2.65-5.39c-2.15-4-5.54-7.15-10-4.56a6.47,6.47,0,0,0-2.19,2.16c0,.84.06,1.68.07,2.52a1.73,1.73,0,0,1-.07.48c.19,4.42.35,8.83.27,13.26a79.7,79.7,0,0,1-1,12.46c2.42,4.21,6.12,6.72,11.17,4.8C63.3,205.53,62.78,192.51,58.8,183.76Z" fill="#e6e6e6"></path>
                <path class="cls-b3-b-patch secondary-color-body" d="M129,144.21c1-5,2.22-9.92,3.42-14.87.22-1.4.43-2.81.64-4.22.16-1,.32-2,.5-3h-.21c-5.37.78-9.57-.38-13.55,4.36-.48.58-1,1.23-1.41,1.91-2.81-.36-5.3,1.26-7.31,3.38a9.41,9.41,0,0,0-2.34,2.16,20.31,20.31,0,0,0-3.08,5.87c-2.6,3.44-4.1,8-3.8,11.6.27,3.36,2.06,6.71,5.79,7,2.64.24,5-1.26,6.87-3a24.82,24.82,0,0,0,12.17-3.89C127.5,149.08,128.28,146.65,129,144.21Z" fill="#e6e6e6"></path>
                <path class="cls-b3-b-patch secondary-color-body" d="M158.6,148.13c2.86-7.87,5.53-16.15,6-24.57a29.48,29.48,0,0,0-.15-6.23,18.07,18.07,0,0,0-1.73-4.91c-.37-.79-.79-1.57-1.2-2.36a4.79,4.79,0,0,0-1.87.08c-.23,0-.46.13-.69.19a8.9,8.9,0,0,0-8.41.28c-5.91,3.31-10.13,10.9-11.28,17.39-1.31,7.44,1.8,16.34,10.7,16,.13,0,.25,0,.37,0a11,11,0,0,1,2,.83,5.63,5.63,0,0,1,.65,3.4,54.53,54.53,0,0,0-1.9,5.43,4.64,4.64,0,0,0,3.74,5.81C155.93,155.63,157.24,151.87,158.6,148.13Z" fill="#e6e6e6"></path>
                <path class="cls-b3-b-patch secondary-color-body" d="M144.52,178.09l0-.05a98.69,98.69,0,0,0,5.58-9.6,1.19,1.19,0,0,1,.73-.62c0-.14,0-.27-.06-.42a10,10,0,0,0-1.86-3.74,18,18,0,0,0-4.58-7.12,5.93,5.93,0,0,0-2.94-1.33,4.17,4.17,0,0,0-5.53.76c-3.19,3.44-2.72,9.29-1.64,13.49,1.23,4.84,4.76,9.38,10.27,8.63Z" fill="#e6e6e6"></path>
                <path class="cls-b3-b-patch secondary-color-body" d="M26.89,149.05a13.38,13.38,0,0,0-2.47-2,11.12,11.12,0,0,0-2.67-2.78c-2.83-2.06-6.12-1.82-9-3.3a3.76,3.76,0,0,1-.47-.3,1.43,1.43,0,0,1-.34.14c.41,1.46.81,2.92,1.21,4.37,1.79,2.28,2.76,5.48,3.59,8a80.8,80.8,0,0,0,10.23,20.64h0a9.52,9.52,0,0,0,3.38-2.08C36.34,166.11,31.78,154,26.89,149.05Z" fill="#e6e6e6"></path>
                <path class="cls-b3-b-patch secondary-color-body" d="M54,123c-4.28-4.25-10.85-3.22-13.36-9.3s-.8-12.64-3.46-18.56C34.92,90.1,29.83,85.3,24,85.4a8.72,8.72,0,0,0-2.69.48,33.94,33.94,0,0,0,1.44,12A2.92,2.92,0,0,1,24,97.78a2.52,2.52,0,0,1,3,2.49c0,3.14.23,6.25.54,9.34,1.72,8.82,3.17,17.68,5.3,26.4.13.38.24.76.37,1.14,1.64,4.83,3.74,9.47,5,14.4,3.11.4,6.59-.24,8.73-2.47,4.26-2.16,6.73-5.86,8.6-10.38C57.62,133.48,58.43,127.4,54,123Z" fill="#e6e6e6"></path>
              </g>
              <desc>Created with Snap</desc>
            </svg>
          </g>
          <g id="dog_9opl9_body_after">
            <g transform="matrix(1,0,0,1,0,-270.2)">
              <g id="dog_9opl9_head_animate_component">
                <g id="dog_9opl9_head_before">
                  <g>
                    <g transform="matrix(1,0,0,1,-55,-53)">
                      <g transform="matrix(1,0,0,1,-32.07,-24.565)">
                        <svg xmlns="http://www.w3.org/2000/svg" viewBox="0 0 64.14 49.13" width="64.14" height="49.13">
                          <defs>
                            <style>.cls-b3-ear-1{}.cls-b3-ear-2{fill:#231f20;}.cls-b3-ear-3{fill:#fff;opacity:0.69;}.cls-b3-ear-4{fill:#703429;}</style>
                          </defs>
                          <path class="cls-b3-ear-1 primary-color-body" d="M16,48.42c-.34,0-.67,0-1,0a21.14,21.14,0,0,1-8.62-2.69c-3.12-1.75-4.91-3.8-5.45-6.28s.16-5.17.87-7.64l.33-1.17a51.49,51.49,0,0,0,2-9.08c.06-.64.11-1.29.16-1.93a28.93,28.93,0,0,1,1-6.56c2.18-7,8.53-9.65,13.48-10.68l1-.2A52.06,52.06,0,0,1,30.06.71a19.3,19.3,0,0,1,3.84.35l.54,0c2.45,0,4.9,1.35,7,2.62a37.32,37.32,0,0,1,8,6.74A60.89,60.89,0,0,1,60.66,26.31l.15.32c1.33,2.84,2.84,6.06,2.59,9.39s-3,5.13-5.34,6.23c-.77.36-1.53.75-2.29,1.13a37.53,37.53,0,0,1-5.67,2.48,30.2,30.2,0,0,1-8.59,1.47h-.12A7.4,7.4,0,0,1,37,46.14a8.42,8.42,0,0,1-1.83-2.06c-.23-.33-.47-.67-.73-1a11.63,11.63,0,0,0-3.66-2.79,29,29,0,0,1-7.12,5.9A15.43,15.43,0,0,1,16,48.42Z" fill="#f8ca33"></path>
                          <path class="cls-b3-ear-2" d="M30.06,1.42a18.41,18.41,0,0,1,3.8.36,5.63,5.63,0,0,1,.58,0c2.33,0,4.78,1.4,6.63,2.51a37.06,37.06,0,0,1,7.83,6.63A60.59,60.59,0,0,1,60,26.61c1.35,2.89,2.92,6.09,2.67,9.36-.22,2.94-2.46,4.48-4.93,5.64a62.61,62.61,0,0,1-7.87,3.57,29.53,29.53,0,0,1-8.38,1.44H41.4a6.77,6.77,0,0,1-4-1.06A15.2,15.2,0,0,1,35,42.64a13.17,13.17,0,0,0-4.37-3.22,28.34,28.34,0,0,1-7.31,6.17A14.67,14.67,0,0,1,16,47.72c-.32,0-.63,0-1,0a20.6,20.6,0,0,1-8.33-2.6C4.41,43.78,2.2,42,1.6,39.26s.32-5.37,1-7.92a55.29,55.29,0,0,0,2.18-9.76c.26-2.78.28-5.65,1.12-8.34,1.86-6,7.15-9,12.94-10.19A55.92,55.92,0,0,1,30.06,1.42m0-1.42h0A52.52,52.52,0,0,0,19.54,1.46l-.95.2c-7.36,1.53-12.2,5.39-14,11.15a29.21,29.21,0,0,0-1,6.73c-.05.64-.09,1.28-.15,1.91a51.64,51.64,0,0,1-2,9L1.28,31l-.18.61c-.7,2.44-1.49,5.2-.88,8S2.7,44.45,6,46.31a21.89,21.89,0,0,0,8.92,2.78c.35,0,.7,0,1.06,0a16,16,0,0,0,8-2.31,29.22,29.22,0,0,0,6.92-5.62,10.4,10.4,0,0,1,3,2.35c.24.29.47.6.7.94a9.26,9.26,0,0,0,2,2.22A8,8,0,0,0,41.39,48h.12a30.8,30.8,0,0,0,8.8-1.5A36.3,36.3,0,0,0,56.09,44c.75-.38,1.52-.76,2.27-1.12,2.53-1.18,5.46-3,5.75-6.81.26-3.52-1.29-6.83-2.66-9.75L61.3,26A61.42,61.42,0,0,0,49.93,9.92a37.63,37.63,0,0,0-8.12-6.87C39.62,1.73,37.07.33,34.44.33l-.5,0A19.78,19.78,0,0,0,30.06,0Z"></path>
                          <path class="cls-b3-ear-3" d="M3.58,31c5.25-8.29,6-18.54,14.88-24.32,6.1-4,13.69-4.88,20.79-3.46a9.87,9.87,0,0,0-5.39-1.45c-4.84-1-10.3.29-15,1.27C13.09,4.25,7.8,7.27,5.94,13.24c-.84,2.69-.86,5.56-1.12,8.34a55.29,55.29,0,0,1-2.18,9.76c-.14.5-.28,1-.43,1.5A15.57,15.57,0,0,0,3.58,31Z"></path>
                          <path class="cls-b3-ear-4" d="M32.44,37c.53-1.5,1.85-3,2.62-4.46s1.54-3.07,2.3-4.61a70.49,70.49,0,0,0,4-10.32c.44-1.45.6-3.93,1.59-4.93,5.31,3.64,9.33,10.55,12,16.34a15.87,15.87,0,0,1,1.67,7.81c-.4,4.81-9.24,8.36-13.48,8a9.73,9.73,0,0,1-6.82-3.87C35.18,39.6,33.17,38.13,32.44,37Z"></path>
                          <desc>Created with Snap</desc>
                        </svg>
                      </g>
                    </g>
                  </g>
                  <g transform="matrix(-1,0,0,1,0,0)">
                    <g transform="matrix(1,0,0,1,-55,-53)">
                      <g transform="matrix(1,0,0,1,-32.07,-24.565)">
                        <svg xmlns="http://www.w3.org/2000/svg" viewBox="0 0 64.14 49.13" width="64.14" height="49.13">
                          <defs>
                            <style>.cls-b3-ear-1{}.cls-b3-ear-2{fill:#231f20;}.cls-b3-ear-3{fill:#fff;opacity:0.69;}.cls-b3-ear-4{fill:#703429;}</style>
                          </defs>
                          <path class="cls-b3-ear-1 primary-color-body" d="M16,48.42c-.34,0-.67,0-1,0a21.14,21.14,0,0,1-8.62-2.69c-3.12-1.75-4.91-3.8-5.45-6.28s.16-5.17.87-7.64l.33-1.17a51.49,51.49,0,0,0,2-9.08c.06-.64.11-1.29.16-1.93a28.93,28.93,0,0,1,1-6.56c2.18-7,8.53-9.65,13.48-10.68l1-.2A52.06,52.06,0,0,1,30.06.71a19.3,19.3,0,0,1,3.84.35l.54,0c2.45,0,4.9,1.35,7,2.62a37.32,37.32,0,0,1,8,6.74A60.89,60.89,0,0,1,60.66,26.31l.15.32c1.33,2.84,2.84,6.06,2.59,9.39s-3,5.13-5.34,6.23c-.77.36-1.53.75-2.29,1.13a37.53,37.53,0,0,1-5.67,2.48,30.2,30.2,0,0,1-8.59,1.47h-.12A7.4,7.4,0,0,1,37,46.14a8.42,8.42,0,0,1-1.83-2.06c-.23-.33-.47-.67-.73-1a11.63,11.63,0,0,0-3.66-2.79,29,29,0,0,1-7.12,5.9A15.43,15.43,0,0,1,16,48.42Z" fill="#f8ca33"></path>
                          <path class="cls-b3-ear-2" d="M30.06,1.42a18.41,18.41,0,0,1,3.8.36,5.63,5.63,0,0,1,.58,0c2.33,0,4.78,1.4,6.63,2.51a37.06,37.06,0,0,1,7.83,6.63A60.59,60.59,0,0,1,60,26.61c1.35,2.89,2.92,6.09,2.67,9.36-.22,2.94-2.46,4.48-4.93,5.64a62.61,62.61,0,0,1-7.87,3.57,29.53,29.53,0,0,1-8.38,1.44H41.4a6.77,6.77,0,0,1-4-1.06A15.2,15.2,0,0,1,35,42.64a13.17,13.17,0,0,0-4.37-3.22,28.34,28.34,0,0,1-7.31,6.17A14.67,14.67,0,0,1,16,47.72c-.32,0-.63,0-1,0a20.6,20.6,0,0,1-8.33-2.6C4.41,43.78,2.2,42,1.6,39.26s.32-5.37,1-7.92a55.29,55.29,0,0,0,2.18-9.76c.26-2.78.28-5.65,1.12-8.34,1.86-6,7.15-9,12.94-10.19A55.92,55.92,0,0,1,30.06,1.42m0-1.42h0A52.52,52.52,0,0,0,19.54,1.46l-.95.2c-7.36,1.53-12.2,5.39-14,11.15a29.21,29.21,0,0,0-1,6.73c-.05.64-.09,1.28-.15,1.91a51.64,51.64,0,0,1-2,9L1.28,31l-.18.61c-.7,2.44-1.49,5.2-.88,8S2.7,44.45,6,46.31a21.89,21.89,0,0,0,8.92,2.78c.35,0,.7,0,1.06,0a16,16,0,0,0,8-2.31,29.22,29.22,0,0,0,6.92-5.62,10.4,10.4,0,0,1,3,2.35c.24.29.47.6.7.94a9.26,9.26,0,0,0,2,2.22A8,8,0,0,0,41.39,48h.12a30.8,30.8,0,0,0,8.8-1.5A36.3,36.3,0,0,0,56.09,44c.75-.38,1.52-.76,2.27-1.12,2.53-1.18,5.46-3,5.75-6.81.26-3.52-1.29-6.83-2.66-9.75L61.3,26A61.42,61.42,0,0,0,49.93,9.92a37.63,37.63,0,0,0-8.12-6.87C39.62,1.73,37.07.33,34.44.33l-.5,0A19.78,19.78,0,0,0,30.06,0Z"></path>
                          <path class="cls-b3-ear-3" d="M3.58,31c5.25-8.29,6-18.54,14.88-24.32,6.1-4,13.69-4.88,20.79-3.46a9.87,9.87,0,0,0-5.39-1.45c-4.84-1-10.3.29-15,1.27C13.09,4.25,7.8,7.27,5.94,13.24c-.84,2.69-.86,5.56-1.12,8.34a55.29,55.29,0,0,1-2.18,9.76c-.14.5-.28,1-.43,1.5A15.57,15.57,0,0,0,3.58,31Z"></path>
                          <path class="cls-b3-ear-4" d="M32.44,37c.53-1.5,1.85-3,2.62-4.46s1.54-3.07,2.3-4.61a70.49,70.49,0,0,0,4-10.32c.44-1.45.6-3.93,1.59-4.93,5.31,3.64,9.33,10.55,12,16.34a15.87,15.87,0,0,1,1.67,7.81c-.4,4.81-9.24,8.36-13.48,8a9.73,9.73,0,0,1-6.82-3.87C35.18,39.6,33.17,38.13,32.44,37Z"></path>
                          <desc>Created with Snap</desc>
                        </svg>
                      </g>
                    </g>
                  </g>
                </g>
                <g id="dog_9opl9_head_main" transform="matrix(1,0,0,1,-66.935,-62.07)">
                  <svg xmlns="http://www.w3.org/2000/svg" viewBox="0 0 133.87 124.14" width="133.87" height="124.14">
                    <defs>
                      <style>.cls-d6-h-1{}.cls-d6-h-2,.cls-d6-h-4{fill:#231f20;}.cls-d6-h-3{fill:#fff;opacity:0.69;}.cls-d6-h-4{opacity:0.2;}.cls-d6-h-5{opacity:0.46;}</style>
                    </defs>
                    <path class="cls-d6-h-1 primary-color-body" d="M64.76,123.44A46.06,46.06,0,0,1,49.53,121c-7.29-1.39-12.89-4.36-17.15-9.09-1.26-1.4-2.41-2.88-3.53-4.31a37.24,37.24,0,0,0-7-7.49l-.45-.32a32.7,32.7,0,0,1-7.54-3.23C7.69,92.82,3.05,86,1.46,78.23c-2.34-11.4.88-23.46,8.4-31.47a2,2,0,0,1,.18-.2l.19-.17a29.65,29.65,0,0,1,5-4.12c-.78-13.06,8.5-25.79,17.55-32.16C38.92,5.8,45.83,3.42,52.23,3.42a23.08,23.08,0,0,1,14.63,5,12.23,12.23,0,0,1,1-1.13A24.2,24.2,0,0,1,73.42,3.4,25.28,25.28,0,0,1,84.71.71c.55,0,1.1,0,1.64.06,7.59.52,14.43,4.48,19.26,11.13s8.93,18.64,7.31,28.19a25.6,25.6,0,0,1,13.19,8.32c4.94,6.08,7.61,15.11,7,23.57a27.08,27.08,0,0,1-.76,4.57,4.58,4.58,0,0,1-.85,3.7c-.47.62-.92,1.25-1.36,1.88a22.32,22.32,0,0,1-3,4.26,25.59,25.59,0,0,1-4.07,4.4A45.79,45.79,0,0,1,112.77,97c-.76.36-1.53.69-2.31,1-1.44,1.53-2.95,3.26-4.75,5.42C98.43,112.2,90,118.12,80.53,121.05a54.13,54.13,0,0,1-15.77,2.39Z" fill="#f8ca33"></path>
                    <path class="cls-d6-h-2" d="M84.71,1.42c.54,0,1.07,0,1.59.05C93.82,2,100.41,6,105,12.32c4.8,6.61,9,18.79,7.07,28.27a25.32,25.32,0,0,1,13.45,8.27c4.94,6.07,7.42,15,6.8,23.06a24.89,24.89,0,0,1-.78,4.62,3.86,3.86,0,0,1-.68,3.28c-.48.63-.93,1.27-1.38,1.91a22.11,22.11,0,0,1-3,4.18,25.61,25.61,0,0,1-4,4.33,45.6,45.6,0,0,1-10.07,6.11c-.8.37-1.61.72-2.42,1.06-1.66,1.76-3.26,3.62-4.88,5.57-6.74,8.11-15.1,14.37-24.85,17.39a52.94,52.94,0,0,1-15.56,2.36,45.45,45.45,0,0,1-15.05-2.46h0c-6.42-1.21-12.19-3.77-16.78-8.87-3.64-4-6.29-8.69-10.63-11.9l-.56-.4a32.11,32.11,0,0,1-7.49-3.18C8,92.21,3.68,85.51,2.15,78.08-.15,66.87,3.09,55,10.38,47.25c0-.06.09-.12.15-.18l.24-.21A28,28,0,0,1,16,42.64C15,30.05,24,17.15,33.18,10.69c5.74-4,12.48-6.57,19-6.56A22.54,22.54,0,0,1,67,9.41,13.89,13.89,0,0,1,68.36,7.8,23.06,23.06,0,0,1,73.74,4a24.57,24.57,0,0,1,11-2.62m0-1.42A26,26,0,0,0,73.1,2.77a24.74,24.74,0,0,0-5.7,4c-.23.22-.44.44-.65.67A23.8,23.8,0,0,0,52.23,2.71c-6.54,0-13.6,2.42-19.86,6.82C23.25,15.94,13.91,28.71,14.49,41.9A30.09,30.09,0,0,0,9.8,45.83l0,0-.23.21a2.09,2.09,0,0,0-.2.22l0,0c-7.69,8.19-11,20.49-8.6,32.11,1.64,7.94,6.4,15,12.74,18.76a32.79,32.79,0,0,0,7.6,3.26l.34.25A36.42,36.42,0,0,1,28.29,108c1.12,1.44,2.28,2.94,3.56,4.35,4.37,4.85,10.09,7.9,17.5,9.3a46.63,46.63,0,0,0,15.41,2.5,54.55,54.55,0,0,0,16-2.42c9.56-3,18.15-9,25.52-17.84,1.74-2.1,3.21-3.78,4.61-5.28.79-.33,1.52-.65,2.2-1a46.72,46.72,0,0,0,10.38-6.3,26.34,26.34,0,0,0,4.18-4.52,23.53,23.53,0,0,0,3.09-4.33c.39-.55.84-1.18,1.31-1.8a5.3,5.3,0,0,0,1-4.1,27.85,27.85,0,0,0,.74-4.55c.66-8.63-2.07-17.85-7.12-24.06a26,26,0,0,0-12.94-8.38c1.38-9.64-2.74-21.5-7.53-28.1C101.23,4.66,94.2.6,86.4.06,85.85,0,85.28,0,84.71,0Z"></path>
                    <path class="cls-d6-h-3" d="M35,15.55A42.54,42.54,0,0,1,54.76,7.48a83,83,0,0,1,9.33-.13c-9.62-5.81-21.59-3.2-30.91,3.34-9.11,6.41-18,19.15-17.24,31.64A51.81,51.81,0,0,1,35,15.55Z"></path>
                    <path class="cls-d6-h-4" d="M125.56,48.86a25.32,25.32,0,0,0-13.45-8.27c1.89-9.48-2.27-21.66-7.07-28.27-.55-.76-1.14-1.49-1.75-2.18a43.81,43.81,0,0,1,1.5,4.94A53,53,0,0,1,106.22,25a32.83,32.83,0,0,1-.6,12.79c1.85,2.9,4.82,5,7.45,7.25,5.67,4.95,10.58,12,11.08,19.73.62,9.63-4.6,19.94-12.94,24.68A33.11,33.11,0,0,1,106,94.09c-6.43,4.57-14.33,6.13-22,7.23a113.83,113.83,0,0,1-50.16-3.81C22.05,93.74,9.14,87.72,2,77.18c0,.3.09.6.15.9C3.68,85.51,8,92.21,14.23,95.92a32.11,32.11,0,0,0,7.49,3.18l.56.4c4.34,3.21,7,7.86,10.63,11.9,4.59,5.1,10.36,7.66,16.78,8.87h0c9.69,3.41,20.89,3.11,30.61.1s18.11-9.28,24.85-17.39c1.62-2,3.22-3.81,4.88-5.57.81-.34,1.62-.69,2.42-1.06a45.6,45.6,0,0,0,10.07-6.11,25.61,25.61,0,0,0,4-4.33,22.11,22.11,0,0,0,3-4.18c.45-.64.9-1.28,1.38-1.91a3.86,3.86,0,0,0,.68-3.28,24.89,24.89,0,0,0,.78-4.62C133,63.89,130.5,54.93,125.56,48.86Z"></path>
                    <path class="cls-d6-h-5 secondary-color-patch" d="M115.6,40.15a4,4,0,0,1-1.76-4.33c.58-3.9-.26-7.85-1.5-11.63a17.46,17.46,0,0,0-11,8.83,16.74,16.74,0,0,0-1.44,4.07,17.9,17.9,0,0,0-1.19,11.43c2.54,11.44,16.14,16.39,25.87,10.41a18.16,18.16,0,0,0,5.44-5.2C125.45,48.89,121.33,43.67,115.6,40.15Z" fill="#e6e6e6"></path>
                    <path class="cls-d6-h-5 secondary-color-patch" d="M15.93,34.34c-.22,1.85-.4,3.72-.73,5.65-.58,3.39-4,4.67-6.17,7.14C4.28,52.62,2.38,59.89,1.11,66.92a12.25,12.25,0,0,0,13.16,4.13c5.28-1.61,8.68-6.46,10.59-11.36C28.34,50.74,26,37.86,15.93,34.34Z" fill="#e6e6e6"></path>
                    <desc>Created with Snap</desc>
                  </svg>
                </g>
                <g id="dog_9opl9_head_after">
                  <g>
                    <g transform="matrix(1,0,0,1,-25,-25)">
                      <g transform="matrix(1,0,0,1,-14.695,-17.795)">
                        <svg xmlns="http://www.w3.org/2000/svg" viewBox="0 0 29.39 35.59" width="29.39" height="35.59">
                          <defs>
                            <style>.cls-b5-eye1{fill:#272110;}.cls-b5-eye2{fill:#fff;}.cls-b5-eye3{fill:#3b578f;}.cls-b5-eye4{fill:#988c83;}</style>
                          </defs>
                          <path class="cls-b5-eye1" d="M11.3,10.86A12.25,12.25,0,0,1,21,14.52c2,2.11,3.09,6.64,6.28,7.2,2.75.48,2.57,3.63.75,4.86a2.39,2.39,0,0,1-.91.81c-2.82,1.44-4.17,4.29-6.64,6.13a10.79,10.79,0,0,1-8.15,1.95A14.08,14.08,0,0,1,.05,22.86C-.56,16.29,4.48,11.27,11.3,10.86Z"></path>
                          <path class="cls-b5-eye2" d="M3.49,19.12A8.57,8.57,0,0,1,13,12.94c4.27-1,8.71,4.56,9.5,8C24,27.29,20.06,34.49,12.46,33.45,5.59,32.5,1.58,25.29,3.49,19.12Z"></path>
                          <path class="cls-b5-eye2" d="M12.83,15.84a2.74,2.74,0,1,1,.07,5.48A2.74,2.74,0,1,1,12.83,15.84Z"></path>
                          <circle class="cls-b5-eye1" cx="12.92" cy="23.21" r="8.49"></circle>
                          <path class="cls-b5-eye3" d="M13.35,26.51A7.48,7.48,0,0,1,7,23.46l-.66,0a6.55,6.55,0,0,0,13.07.32A7.52,7.52,0,0,1,13.35,26.51Z"></path>
                          <path class="cls-b5-eye4" d="M14.39,28.15l.12,0h-.12Z"></path>
                          <circle class="cls-b5-eye2" cx="11.51" cy="17.42" r="3"></circle>
                          <path d="M4.79,8.36s7.78-18.81,19.81,0C24.6,8.36,14.44-2.73,4.79,8.36Z"></path>
                        </svg>
                      </g>
                    </g>
                  </g>
                  <g transform="matrix(-1,0,0,1,0,0)">
                    <g transform="matrix(1,0,0,1,-25,-25)">
                      <g transform="matrix(1,0,0,1,-14.695,-17.795)">
                        <svg xmlns="http://www.w3.org/2000/svg" viewBox="0 0 29.39 35.59" width="29.39" height="35.59">
                          <defs>
                            <style>.cls-b5-eye1{fill:#272110;}.cls-b5-eye2{fill:#fff;}.cls-b5-eye3{fill:#3b578f;}.cls-b5-eye4{fill:#988c83;}</style>
                          </defs>
                          <path class="cls-b5-eye1" d="M11.3,10.86A12.25,12.25,0,0,1,21,14.52c2,2.11,3.09,6.64,6.28,7.2,2.75.48,2.57,3.63.75,4.86a2.39,2.39,0,0,1-.91.81c-2.82,1.44-4.17,4.29-6.64,6.13a10.79,10.79,0,0,1-8.15,1.95A14.08,14.08,0,0,1,.05,22.86C-.56,16.29,4.48,11.27,11.3,10.86Z"></path>
                          <path class="cls-b5-eye2" d="M3.49,19.12A8.57,8.57,0,0,1,13,12.94c4.27-1,8.71,4.56,9.5,8C24,27.29,20.06,34.49,12.46,33.45,5.59,32.5,1.58,25.29,3.49,19.12Z"></path>
                          <path class="cls-b5-eye2" d="M12.83,15.84a2.74,2.74,0,1,1,.07,5.48A2.74,2.74,0,1,1,12.83,15.84Z"></path>
                          <circle class="cls-b5-eye1" cx="12.92" cy="23.21" r="8.49"></circle>
                          <path class="cls-b5-eye3" d="M13.35,26.51A7.48,7.48,0,0,1,7,23.46l-.66,0a6.55,6.55,0,0,0,13.07.32A7.52,7.52,0,0,1,13.35,26.51Z"></path>
                          <path class="cls-b5-eye4" d="M14.39,28.15l.12,0h-.12Z"></path>
                          <circle class="cls-b5-eye2" cx="11.51" cy="17.42" r="3"></circle>
                          <path d="M4.79,8.36s7.78-18.81,19.81,0C24.6,8.36,14.44-2.73,4.79,8.36Z"></path>
                          <desc>Created with Snap</desc>
                        </svg>
                      </g>
                    </g>
                  </g>
                  <g transform="matrix(1,0,0,1,0,22)" id="dog_9opl9_mouth_main">
                    <g transform="matrix(1,0,0,1,-40.915,-36.095)">
                      <svg xmlns="http://www.w3.org/2000/svg" viewBox="0 0 81.83 72.19" width="81.83" height="72.19">
                        <defs>
                          <style>.cls-d2-muzzle-1{fill:#fff;}.cls-d2-muzzle-2{fill:#231f20;opacity:0.2;}.cls-d2-muzzle-3{fill:#8c8e90;}.cls-d2-muzzle-4{fill:none;stroke:#231f20;stroke-linecap:round;stroke-linejoin:round;stroke-width:2.13px;}</style>
                        </defs>
                        <path class="cls-d2-muzzle-1" d="M80.11,38.7c-1.93-4.17-5.18-7.17-9.28-9.65S61.92,25.11,59,21.3C53.44,14,56,.43,42.5,0a13.06,13.06,0,0,0-12,7.34c-2.06,3.86-2.2,9.48-5.63,12.51-3.63,3.2-9.61,4.35-13.82,6.92A19.06,19.06,0,0,0,2.13,37.93c-3,5.75-2.92,12.53.92,18.82C9.22,66.87,21,70.81,33,71.88c11.28,1,23.95-.35,34-5.44C78,60.86,85.35,50,80.11,38.7ZM41.92,29.77c.21-.29.4-.6.6-.9.25.39.53.76.8,1.13C42.86,29.91,42.39,29.83,41.92,29.77Z"></path>
                        <path class="cls-d2-muzzle-2" d="M80.11,38.7c-.19-.41-.4-.8-.61-1.18-.57,10.41-7.17,20.3-15.61,26.08-9.66,6.62-22.56,7.33-33.67,4.68-9-2.15-17.93-6.8-22.74-15C4,47.34,3.23,40.56,3.87,33.86a17.11,17.11,0,0,0-1.74,4.07c-3,5.75-2.92,12.53.92,18.82C9.22,66.87,21,70.81,33,71.88c11.28,1,23.95-.35,34-5.44C78,60.86,85.35,50,80.11,38.7Z"></path>
                        <circle class="cls-d2-muzzle-3" cx="13.59" cy="35.24" r="1.86"></circle>
                        <circle class="cls-d2-muzzle-3" cx="10.67" cy="42.7" r="1.86"></circle>
                        <circle class="cls-d2-muzzle-3" cx="18.92" cy="40.83" r="1.86"></circle>
                        <circle class="cls-d2-muzzle-3" cx="66.12" cy="36.17" r="1.86"></circle>
                        <circle class="cls-d2-muzzle-3" cx="69.05" cy="43.62" r="1.86"></circle>
                        <circle class="cls-d2-muzzle-3" cx="60.8" cy="41.76" r="1.86"></circle>
                        <path class="cls-d2-muzzle-4" d="M41.14,41.69c0,6.59.84,14.72-4.72,19.93s-20.74,4.24-20.74-10.8"></path>
                        <path class="cls-d2-muzzle-4" d="M41.4,41.69c0,6.59-1.48,14.93,4.08,20.15s18.05,1.34,19.27-10.48"></path>
                      </svg>
                    </g>
                    <g id="dog_9opl9_mouth_after">
                      <g transform="matrix(1,0,0,1,0,-24)">
                        <g transform="matrix(1,0,0,1,-15.145,-8.34)">
                          <svg xmlns="http://www.w3.org/2000/svg" viewBox="0 0 30.29 16.68" width="30.29" height="16.68">
                            <defs>
                              <style>.cls-d3-snout-1{fill:#3c5d78;}.cls-d3-snout-2{opacity:0.32;}.cls-d3-snout-3{fill:#231f20;}.cls-d3-snout-4{fill:#fff;}</style>
                            </defs>
                            <path class="cls-d3-snout-1" d="M15.11,16.18a1.93,1.93,0,0,1-.75-.13,33.42,33.42,0,0,1-7.8-2.64c-1.81-.86-4-2.1-5.22-4.12a4.81,4.81,0,0,1,.29-5.8,8.57,8.57,0,0,1,3.88-1.9,32.48,32.48,0,0,1,9-1.09c1.56,0,3.23.08,5,.22l.63.06c2.63.21,5.61.46,7.67,1.9A4.9,4.9,0,0,1,28.88,3.8a4.28,4.28,0,0,1,.77,3.74c-.66,2.58-3.49,4.72-5.91,5.87a33.92,33.92,0,0,1-7.88,2.66,1.65,1.65,0,0,1-.65.11Z"></path>
                            <path d="M14.47,1c1.68,0,3.35.09,4.92.22,2.73.23,5.94.39,8.05,1.87a4.52,4.52,0,0,1,1,1c2.48,3.41-1.14,7.06-5,8.86a32.85,32.85,0,0,1-7.76,2.63,1.45,1.45,0,0,1-.55.1h-.13a1.45,1.45,0,0,1-.55-.1A33,33,0,0,1,6.77,13,10.92,10.92,0,0,1,1.77,9,4.29,4.29,0,0,1,2,3.83,8.35,8.35,0,0,1,5.65,2.07,32.08,32.08,0,0,1,14.47,1m0-1a32.72,32.72,0,0,0-9.1,1.11,9,9,0,0,0-4.11,2C-.28,4.81-.42,7.26.91,9.54S4.47,13,6.35,13.86a34.65,34.65,0,0,0,7.92,2.69,2.45,2.45,0,0,0,.81.13h.13a2.47,2.47,0,0,0,.82-.13A34.65,34.65,0,0,0,24,13.86c2.53-1.19,5.48-3.45,6.19-6.2a4.87,4.87,0,0,0-.85-4.16A5.51,5.51,0,0,0,28,2.27C25.85.75,22.8.5,20.11.28L19.48.22C17.73.08,16.05,0,14.47,0Z"></path>
                            <g class="cls-d3-snout-2">
                              <path class="cls-d3-snout-3" d="M29.21,5.67c-1,4.3-9.06,7.47-15.23,6.7A18,18,0,0,1,4.32,9.7,8.33,8.33,0,0,1,1,6.13,5.22,5.22,0,0,0,1.77,9a10.92,10.92,0,0,0,5,3.91,33,33,0,0,0,7.76,2.63,1.42,1.42,0,0,0,.62.1,1.4,1.4,0,0,0,.61-.1A32.85,32.85,0,0,0,23.52,13C26.76,11.43,29.84,8.58,29.21,5.67Z"></path>
                            </g>
                            <path d="M25.35,9a4,4,0,0,1-1.59,1,8,8,0,0,1-2,.57,3.45,3.45,0,0,1-2.13-.25,1.94,1.94,0,0,1-1-2.21,2.62,2.62,0,0,1,1.83-1.59,8.2,8.2,0,0,1,2.09-.38h.21l.31,0a3.58,3.58,0,0,1,2.07.29,1.58,1.58,0,0,1,.83,1.28A2,2,0,0,1,25.35,9Z"></path>
                            <path d="M19.17,7.4c-1.28,1.23-.61,3.43.84,4.35,2.22,1.4,5,.68,6.82-.72a7,7,0,0,0,2.46-2.9c-1.69,1-2.9,2.53-5,3a5.22,5.22,0,0,1-2.93,0c-.9-.39-1.7-1.56-1.2-2.42"></path>
                            <path d="M4.67,9a4,4,0,0,0,1.59,1,7.93,7.93,0,0,0,2,.57,3.47,3.47,0,0,0,2.13-.25,1.94,1.94,0,0,0,1-2.21A2.59,2.59,0,0,0,9.63,6.51a8.27,8.27,0,0,0-2.1-.38H7.32a3,3,0,0,0-.31,0A3.55,3.55,0,0,0,5,6.38a1.58,1.58,0,0,0-.83,1.28A1.88,1.88,0,0,0,4.67,9Z"></path>
                            <path d="M10.84,7.4c1.28,1.23.62,3.43-.84,4.35-2.21,1.4-5,.68-6.81-.72A7.13,7.13,0,0,1,.72,8.13c1.7,1,2.91,2.53,5,3a5.25,5.25,0,0,0,2.94,0c.89-.39,1.69-1.56,1.19-2.42"></path>
                            <ellipse class="cls-d3-snout-4" cx="15.72" cy="3.31" rx="6.14" ry="0.85"></ellipse>
                          </svg>
                        </g>
                      </g>
                    </g>
                  </g>
                </g>
                <g></g>
              </g>
            </g>
          </g>
        </g>
      </g>
    </g>
  </g>
</svg>
